%FSLAX44Y44*%
%MOMM*%
G71*
G01*
G75*
G04 Layer_Physical_Order=1*
G04 Layer_Color=255*
%ADD10R,1.1000X0.6000*%
%ADD11R,1.5000X0.2500*%
%ADD12R,0.2500X1.5000*%
%ADD13R,0.6000X2.0000*%
%ADD14R,0.5588X1.6002*%
%ADD15R,0.8000X0.4000*%
%ADD16R,0.9000X0.5000*%
%ADD17C,1.2000*%
G04:AMPARAMS|DCode=18|XSize=1.5mm|YSize=0.8mm|CornerRadius=0.2mm|HoleSize=0mm|Usage=FLASHONLY|Rotation=0.000|XOffset=0mm|YOffset=0mm|HoleType=Round|Shape=RoundedRectangle|*
%AMROUNDEDRECTD18*
21,1,1.5000,0.4000,0,0,0.0*
21,1,1.1000,0.8000,0,0,0.0*
1,1,0.4000,0.5500,-0.2000*
1,1,0.4000,-0.5500,-0.2000*
1,1,0.4000,-0.5500,0.2000*
1,1,0.4000,0.5500,0.2000*
%
%ADD18ROUNDEDRECTD18*%
G04:AMPARAMS|DCode=19|XSize=1.5mm|YSize=0.8mm|CornerRadius=0.2mm|HoleSize=0mm|Usage=FLASHONLY|Rotation=90.000|XOffset=0mm|YOffset=0mm|HoleType=Round|Shape=RoundedRectangle|*
%AMROUNDEDRECTD19*
21,1,1.5000,0.4000,0,0,90.0*
21,1,1.1000,0.8000,0,0,90.0*
1,1,0.4000,0.2000,0.5500*
1,1,0.4000,0.2000,-0.5500*
1,1,0.4000,-0.2000,-0.5500*
1,1,0.4000,-0.2000,0.5500*
%
%ADD19ROUNDEDRECTD19*%
%ADD20O,1.0000X1.6000*%
G04:AMPARAMS|DCode=21|XSize=1.6mm|YSize=1.8mm|CornerRadius=0.4mm|HoleSize=0mm|Usage=FLASHONLY|Rotation=0.000|XOffset=0mm|YOffset=0mm|HoleType=Round|Shape=RoundedRectangle|*
%AMROUNDEDRECTD21*
21,1,1.6000,1.0000,0,0,0.0*
21,1,0.8000,1.8000,0,0,0.0*
1,1,0.8000,0.4000,-0.5000*
1,1,0.8000,-0.4000,-0.5000*
1,1,0.8000,-0.4000,0.5000*
1,1,0.8000,0.4000,0.5000*
%
%ADD21ROUNDEDRECTD21*%
%ADD22R,0.5000X0.9000*%
%ADD23R,1.7000X2.2000*%
%ADD24R,0.5000X0.6000*%
%ADD25R,0.4000X0.8000*%
%ADD26R,0.6000X0.5000*%
%ADD27R,0.6000X0.6000*%
%ADD28R,4.5000X1.7500*%
%ADD29C,0.2000*%
%ADD30C,1.0000*%
%ADD31C,0.4000*%
%ADD32C,1.5240*%
%ADD33O,2.6416X1.3208*%
%ADD34R,1.5240X1.5240*%
%ADD35C,2.4000*%
%ADD36R,1.2000X2.8000*%
%ADD37C,1.8000*%
%ADD38C,2.0000*%
%ADD39C,1.7000*%
%ADD40R,1.7000X1.7000*%
%ADD41C,1.2700*%
D10*
X1290800Y799400D02*
D03*
X1263800Y780400D02*
D03*
X1290800D02*
D03*
Y789900D02*
D03*
X1263800D02*
D03*
Y799400D02*
D03*
D11*
X677100Y432400D02*
D03*
Y437400D02*
D03*
Y442400D02*
D03*
Y447400D02*
D03*
Y452400D02*
D03*
Y457400D02*
D03*
Y462400D02*
D03*
Y467400D02*
D03*
Y472400D02*
D03*
Y477400D02*
D03*
Y482400D02*
D03*
Y487400D02*
D03*
Y492400D02*
D03*
Y497400D02*
D03*
Y502400D02*
D03*
Y507400D02*
D03*
X791100D02*
D03*
Y502400D02*
D03*
Y497400D02*
D03*
Y492400D02*
D03*
Y487400D02*
D03*
Y482400D02*
D03*
Y477400D02*
D03*
Y472400D02*
D03*
Y467400D02*
D03*
Y462400D02*
D03*
Y457400D02*
D03*
Y452400D02*
D03*
Y447400D02*
D03*
Y442400D02*
D03*
Y437400D02*
D03*
Y432400D02*
D03*
D12*
X696600Y526900D02*
D03*
X701600D02*
D03*
X706600D02*
D03*
X711600D02*
D03*
X716600D02*
D03*
X721600D02*
D03*
X726600D02*
D03*
X731600D02*
D03*
X736600D02*
D03*
X741600D02*
D03*
X746600D02*
D03*
X751600D02*
D03*
X756600D02*
D03*
X761600D02*
D03*
X766600D02*
D03*
X771600D02*
D03*
Y412900D02*
D03*
X766600D02*
D03*
X761600D02*
D03*
X756600D02*
D03*
X751600D02*
D03*
X746600D02*
D03*
X741600D02*
D03*
X736600D02*
D03*
X731600D02*
D03*
X726600D02*
D03*
X721600D02*
D03*
X716600D02*
D03*
X711600D02*
D03*
X706600D02*
D03*
X701600D02*
D03*
X696600D02*
D03*
D13*
X756250Y141300D02*
D03*
X768950D02*
D03*
X781650D02*
D03*
X794350D02*
D03*
X807050D02*
D03*
X819750D02*
D03*
X832450D02*
D03*
X845150D02*
D03*
X857850D02*
D03*
X870550D02*
D03*
X883250D02*
D03*
X895950D02*
D03*
X756250Y235300D02*
D03*
X768950D02*
D03*
X781650D02*
D03*
X794350D02*
D03*
X807050D02*
D03*
X819750D02*
D03*
X832450D02*
D03*
X845150D02*
D03*
X857850D02*
D03*
X870550D02*
D03*
X883250D02*
D03*
X895950D02*
D03*
D14*
X162700Y378100D02*
D03*
X150000D02*
D03*
X137300D02*
D03*
X124600D02*
D03*
X111900D02*
D03*
X99200D02*
D03*
X86500D02*
D03*
Y428900D02*
D03*
X99200D02*
D03*
X111900D02*
D03*
X124600D02*
D03*
X137300D02*
D03*
X150000D02*
D03*
X162700D02*
D03*
X297200Y434300D02*
D03*
X309900D02*
D03*
X322600D02*
D03*
X335300D02*
D03*
X348000D02*
D03*
X360700D02*
D03*
X373400D02*
D03*
Y383500D02*
D03*
X360700D02*
D03*
X348000D02*
D03*
X335300D02*
D03*
X322600D02*
D03*
X309900D02*
D03*
X297200D02*
D03*
D15*
X713740Y720440D02*
D03*
Y732440D02*
D03*
X1465580Y131160D02*
D03*
Y143160D02*
D03*
X1038860Y623920D02*
D03*
Y635920D02*
D03*
X1041400Y458820D02*
D03*
Y470820D02*
D03*
X1038860Y296260D02*
D03*
Y308260D02*
D03*
X1036320Y131160D02*
D03*
Y143160D02*
D03*
X1181100Y623920D02*
D03*
Y635920D02*
D03*
Y456280D02*
D03*
Y468280D02*
D03*
Y293720D02*
D03*
Y305720D02*
D03*
X1178560Y131160D02*
D03*
Y143160D02*
D03*
X1320800Y623920D02*
D03*
Y635920D02*
D03*
Y458820D02*
D03*
Y470820D02*
D03*
X1323340Y293720D02*
D03*
Y305720D02*
D03*
X1320800Y131160D02*
D03*
Y143160D02*
D03*
X1457960Y621380D02*
D03*
Y633380D02*
D03*
X1460500Y458820D02*
D03*
Y470820D02*
D03*
Y293720D02*
D03*
Y305720D02*
D03*
X1130300Y780940D02*
D03*
Y792940D02*
D03*
Y758540D02*
D03*
Y770540D02*
D03*
X728980Y396240D02*
D03*
Y384240D02*
D03*
X690880Y748380D02*
D03*
Y760380D02*
D03*
X396240Y155860D02*
D03*
Y143860D02*
D03*
X370840Y155860D02*
D03*
Y143860D02*
D03*
X269240Y651860D02*
D03*
Y663860D02*
D03*
X320040Y651860D02*
D03*
Y663860D02*
D03*
X243840Y155860D02*
D03*
Y143860D02*
D03*
X269240Y155860D02*
D03*
Y143860D02*
D03*
X345440Y651860D02*
D03*
Y663860D02*
D03*
X320040Y155860D02*
D03*
Y143860D02*
D03*
D16*
X457200Y590200D02*
D03*
Y578200D02*
D03*
Y536860D02*
D03*
Y524860D02*
D03*
X1071880Y768000D02*
D03*
Y756000D02*
D03*
X962660Y760380D02*
D03*
Y748380D02*
D03*
X1348740D02*
D03*
Y760380D02*
D03*
X1224280Y801020D02*
D03*
Y789020D02*
D03*
X1089660Y756000D02*
D03*
Y768000D02*
D03*
X815340Y474060D02*
D03*
Y486060D02*
D03*
Y433420D02*
D03*
Y445420D02*
D03*
X731520Y371760D02*
D03*
Y359760D02*
D03*
X579120Y578200D02*
D03*
Y590200D02*
D03*
Y527400D02*
D03*
Y539400D02*
D03*
X922020Y811180D02*
D03*
Y799180D02*
D03*
D17*
X894820Y700430D02*
D03*
X779820D02*
D03*
D18*
X782320Y725430D02*
D03*
Y737430D02*
D03*
Y749430D02*
D03*
Y761430D02*
D03*
Y773430D02*
D03*
Y785430D02*
D03*
Y797430D02*
D03*
Y809430D02*
D03*
X892320D02*
D03*
Y797430D02*
D03*
Y785430D02*
D03*
Y773430D02*
D03*
Y761430D02*
D03*
Y749430D02*
D03*
Y737430D02*
D03*
Y725430D02*
D03*
D19*
X807320Y702930D02*
D03*
X819320D02*
D03*
X831320D02*
D03*
X843320D02*
D03*
X855320D02*
D03*
X867320D02*
D03*
D20*
X787820Y827430D02*
D03*
X886820D02*
D03*
D21*
X787820Y709430D02*
D03*
X886820D02*
D03*
D22*
X752760Y383540D02*
D03*
X740760D02*
D03*
X730600Y553720D02*
D03*
X742600D02*
D03*
X653700Y472440D02*
D03*
X641700D02*
D03*
D23*
X994580Y772160D02*
D03*
X1047580D02*
D03*
D24*
X640080Y221280D02*
D03*
X630580Y246080D02*
D03*
X649580D02*
D03*
D25*
X694340Y632460D02*
D03*
X682340D02*
D03*
X757840D02*
D03*
X745840D02*
D03*
X1545240Y457200D02*
D03*
X1533240D02*
D03*
X1634140Y467360D02*
D03*
X1622140D02*
D03*
X1634140Y502920D02*
D03*
X1622140D02*
D03*
X1631600Y538480D02*
D03*
X1619600D02*
D03*
X756000Y353060D02*
D03*
X768000D02*
D03*
X861980Y607060D02*
D03*
X849980D02*
D03*
X861980Y670560D02*
D03*
X849980D02*
D03*
X861980Y543560D02*
D03*
X849980D02*
D03*
D26*
X1559860Y665480D02*
D03*
X1584660Y674980D02*
D03*
Y655980D02*
D03*
X243540Y581660D02*
D03*
X218740Y572160D02*
D03*
Y591160D02*
D03*
X330500Y215900D02*
D03*
X355300Y225400D02*
D03*
Y206400D02*
D03*
X403560Y581660D02*
D03*
X378760Y572160D02*
D03*
Y591160D02*
D03*
X281640Y581660D02*
D03*
X256840Y572160D02*
D03*
Y591160D02*
D03*
X362920Y581660D02*
D03*
X338120Y572160D02*
D03*
Y591160D02*
D03*
X319740Y581660D02*
D03*
X294940Y572160D02*
D03*
Y591160D02*
D03*
X287320Y215900D02*
D03*
X312120Y225400D02*
D03*
Y206400D02*
D03*
X244140Y215900D02*
D03*
X268940Y225400D02*
D03*
Y206400D02*
D03*
D27*
X1259200Y752200D02*
D03*
Y730200D02*
D03*
D28*
X1179100Y756800D02*
D03*
Y789300D02*
D03*
D29*
X665480Y447040D02*
X672180D01*
X664720Y446280D02*
X665480Y447040D01*
X665183Y452400D02*
X677060D01*
X663063Y450280D02*
X665183Y452400D01*
X663140Y457400D02*
X677060D01*
X660400Y454660D02*
X663140Y457400D01*
X657086Y462660D02*
X661826Y467400D01*
X662663Y477400D02*
X677060D01*
X649430Y490633D02*
X662663Y477400D01*
X666337Y487400D02*
X677060D01*
X648707Y505030D02*
X666337Y487400D01*
X668161Y497400D02*
X677060D01*
X662560Y503000D02*
X668161Y497400D01*
X668817Y502400D02*
X677060D01*
X666560Y504657D02*
X668817Y502400D01*
X730600Y536103D02*
X731560Y535143D01*
X799303Y437400D02*
X840861Y395841D01*
X841190Y457850D02*
X851280Y447760D01*
X830130Y457850D02*
X841190D01*
X829680Y457400D02*
X830130Y457850D01*
X839533Y453850D02*
X847280Y446103D01*
X831787Y453850D02*
X839533D01*
X830337Y452400D02*
X831787Y453850D01*
X842297Y462400D02*
X862140Y442556D01*
X842953Y467400D02*
X866140Y444213D01*
X668611Y371431D02*
X696600Y399420D01*
Y412900D01*
X779277Y622757D02*
X807100Y594934D01*
X801974Y497900D02*
X807100Y503026D01*
Y594934D01*
X775277Y621100D02*
X803100Y593277D01*
Y506197D02*
Y593277D01*
X799803Y502900D02*
X803100Y506197D01*
X840861Y307340D02*
Y395841D01*
X722346Y424100D02*
X780146Y481900D01*
X694517Y424100D02*
X722346D01*
X649580Y379163D02*
X694517Y424100D01*
X371022Y370840D02*
X388620D01*
X367586Y374276D02*
X371022Y370840D01*
X613596Y509800D02*
X624826Y521030D01*
X542337Y509800D02*
X613596D01*
X530860Y521277D02*
X542337Y509800D01*
X615253Y505800D02*
X626483Y517030D01*
X540680Y505800D02*
X615253D01*
X510540Y535940D02*
X540680Y505800D01*
X578100Y463343D02*
Y477886D01*
X543643Y454600D02*
X569357D01*
X578100Y463343D01*
X574100Y465000D02*
Y479543D01*
X567700Y458600D02*
X574100Y465000D01*
X545300Y458600D02*
X567700D01*
X525423Y472820D02*
X543643Y454600D01*
X502540Y472820D02*
X525423D01*
X506540Y532320D02*
X538000Y500860D01*
Y465900D02*
Y500860D01*
Y465900D02*
X545300Y458600D01*
X578100Y477886D02*
X587514Y487300D01*
X574100Y479543D02*
X585857Y491300D01*
X663430Y521030D02*
X677060Y507400D01*
X658990Y517030D02*
X666560Y509460D01*
X652830Y513030D02*
X662560Y503300D01*
X614409Y499300D02*
X628139Y513030D01*
X650364Y509030D02*
X666994Y492400D01*
X616066Y495300D02*
X629796Y509030D01*
X617723Y491300D02*
X631453Y505030D01*
X647050Y501030D02*
X665680Y482400D01*
X619380Y487300D02*
X633110Y501030D01*
X647050D01*
X631453Y505030D02*
X648707D01*
X629796Y509030D02*
X650364D01*
X628139Y513030D02*
X652830D01*
X626483Y517030D02*
X658990D01*
X624826Y521030D02*
X663430D01*
X649430Y490633D02*
Y491553D01*
X643953Y497030D02*
X649430Y491553D01*
X636207Y497030D02*
X643953D01*
X630730Y491553D02*
X636207Y497030D01*
X630730Y487393D02*
Y491553D01*
X588678Y445341D02*
X630730Y487393D01*
X640080Y474060D02*
Y487680D01*
Y474060D02*
X641700Y472440D01*
X774780Y732430D02*
X779780Y737430D01*
X774749Y732430D02*
X774780D01*
X771820Y729501D02*
X774749Y732430D01*
X771820Y729470D02*
Y729501D01*
X768280Y725930D02*
X771820Y729470D01*
X768280Y696702D02*
Y725930D01*
X407100Y122620D02*
X607060Y322580D01*
Y377306D01*
X896560Y329098D02*
Y367198D01*
X832002Y264540D02*
X896560Y329098D01*
Y367198D02*
X913180Y383818D01*
X866140Y304335D02*
Y444213D01*
X831045Y269240D02*
X866140Y304335D01*
X862140Y305991D02*
Y442556D01*
X830469Y274320D02*
X862140Y305991D01*
X1656080Y137160D02*
Y627159D01*
X1546860Y27940D02*
X1656080Y137160D01*
X1651000Y137737D02*
Y520700D01*
X1546283Y33020D02*
X1651000Y137737D01*
X1647000Y139394D02*
Y492760D01*
X1544626Y37020D02*
X1647000Y139394D01*
X1643000Y141051D02*
Y458500D01*
X1542970Y41020D02*
X1643000Y141051D01*
X1639000Y142707D02*
Y426720D01*
X1541313Y45020D02*
X1639000Y142707D01*
X1635000Y144364D02*
Y422400D01*
X1539656Y49020D02*
X1635000Y144364D01*
X1631000Y146021D02*
Y370840D01*
X1537999Y53020D02*
X1631000Y146021D01*
X1627000Y147678D02*
Y312420D01*
X1536342Y57020D02*
X1627000Y147678D01*
X1623000Y149335D02*
Y241360D01*
X1534685Y61020D02*
X1623000Y149335D01*
X1619000Y150992D02*
Y171700D01*
X1533028Y65020D02*
X1619000Y150992D01*
X1574800Y112448D02*
Y137160D01*
X1531372Y69020D02*
X1574800Y112448D01*
X709543Y27940D02*
X1546860D01*
X668611Y68873D02*
X709543Y27940D01*
X710120Y33020D02*
X1546283D01*
X672610Y70529D02*
X710120Y33020D01*
X711777Y37020D02*
X1544626D01*
X676610Y72186D02*
X711777Y37020D01*
X713434Y41020D02*
X1542970D01*
X680611Y73843D02*
X713434Y41020D01*
X715090Y45020D02*
X1541313D01*
X684611Y75500D02*
X715090Y45020D01*
X716747Y49020D02*
X1539656D01*
X688611Y77157D02*
X716747Y49020D01*
X718404Y53020D02*
X1537999D01*
X692610Y78814D02*
X718404Y53020D01*
X720061Y57020D02*
X1536342D01*
X696610Y80471D02*
X720061Y57020D01*
X721718Y61020D02*
X1534685D01*
X700611Y82127D02*
X721718Y61020D01*
X723375Y65020D02*
X1533028D01*
X704611Y83784D02*
X723375Y65020D01*
X725032Y69020D02*
X1531372D01*
X708611Y85441D02*
X725032Y69020D01*
X1457320Y73020D02*
X1465580Y81280D01*
X857148Y73020D02*
X1457320D01*
X800450Y129717D02*
X857148Y73020D01*
X1438460Y77020D02*
X1442720Y81280D01*
X865847Y77020D02*
X1438460D01*
X813150Y129717D02*
X865847Y77020D01*
X1310000Y81020D02*
X1320800Y91820D01*
X874548Y81020D02*
X1310000D01*
X825850Y129717D02*
X874548Y81020D01*
X1289680Y85020D02*
X1300480Y95820D01*
X883248Y85020D02*
X1289680D01*
X838550Y129717D02*
X883248Y85020D01*
X1162680Y89020D02*
X1178560Y104900D01*
X891947Y89020D02*
X1162680D01*
X851250Y129717D02*
X891947Y89020D01*
X1149980Y93020D02*
X1153160Y96200D01*
X900648Y93020D02*
X1149980D01*
X863950Y129717D02*
X900648Y93020D01*
X1019557Y97020D02*
X1021338Y98802D01*
X909348Y97020D02*
X1019557D01*
X876650Y129717D02*
X909348Y97020D01*
X1017900Y101020D02*
X1021080Y104200D01*
X918047Y101020D02*
X1017900D01*
X889350Y129717D02*
X918047Y101020D01*
X708611Y85441D02*
Y301540D01*
X1465580Y81280D02*
Y111760D01*
X1442720Y81280D02*
Y259080D01*
X1320800Y91820D02*
Y114300D01*
X1300480Y95820D02*
Y254000D01*
X1178560Y104900D02*
Y111760D01*
X1153160Y96200D02*
Y254000D01*
X1021080Y104200D02*
Y259080D01*
X1036320Y105280D02*
Y111760D01*
X1029842Y98802D02*
X1036320Y105280D01*
X1021338Y98802D02*
X1029842D01*
X1104900Y783240D02*
Y793940D01*
X1089660Y768000D02*
X1104900Y783240D01*
X815340Y433420D02*
X827120Y421640D01*
X742600Y546100D02*
Y553720D01*
Y546100D02*
X746560Y542140D01*
X730600Y536103D02*
Y553720D01*
X960500Y618926D02*
Y691886D01*
X958660Y460820D02*
Y588274D01*
X950420Y452580D02*
X958660Y460820D01*
X960500Y618926D02*
X963880Y615546D01*
X934020Y628436D02*
X951880Y610576D01*
X934020Y580604D02*
X951880Y598464D01*
X930020Y626779D02*
X947880Y608919D01*
X930020Y582261D02*
X947880Y600121D01*
X964500Y620583D02*
X967880Y617203D01*
Y591837D02*
Y617203D01*
X962660Y586617D02*
X967880Y591837D01*
X962660Y464243D02*
Y586617D01*
X963880Y593494D02*
Y615546D01*
X958660Y588274D02*
X963880Y593494D01*
X954660Y619109D02*
Y622057D01*
Y619109D02*
X959880Y613890D01*
Y595150D02*
Y613890D01*
X954660Y589931D02*
X959880Y595150D01*
X954660Y462477D02*
Y589931D01*
X950660Y617453D02*
Y623714D01*
Y617453D02*
X955880Y612233D01*
Y596807D02*
Y612233D01*
X950660Y591587D02*
X955880Y596807D01*
X950660Y464134D02*
Y591587D01*
X951880Y598464D02*
Y610576D01*
X947880Y600121D02*
Y608919D01*
X952500Y625554D02*
Y695200D01*
X950660Y623714D02*
X952500Y625554D01*
X947106Y460580D02*
X950660Y464134D01*
X956500Y623897D02*
Y693543D01*
X954660Y622057D02*
X956500Y623897D01*
X948763Y456580D02*
X954660Y462477D01*
X962660Y464243D02*
X965200Y461703D01*
Y459740D02*
Y461703D01*
X950420Y444960D02*
X965200Y459740D01*
X771060Y526900D02*
X771560D01*
X741560Y434540D02*
X779420Y472400D01*
X708700Y467400D02*
X746560Y505260D01*
X814420Y474980D02*
X815340Y474060D01*
X807720Y474980D02*
X814420D01*
X805140Y472400D02*
X807720Y474980D01*
X725777Y354260D02*
X756000D01*
X752760Y377540D02*
X768000Y362300D01*
Y353060D02*
Y362300D01*
X753497Y395160D02*
X758260Y390397D01*
X747840Y395160D02*
X753497D01*
X746560Y396440D02*
X747840Y395160D01*
X762260Y381390D02*
Y392054D01*
X751560Y402754D02*
X762260Y392054D01*
X762883Y375110D02*
X787110D01*
X758260Y379733D02*
X762883Y375110D01*
X758260Y379733D02*
Y390397D01*
X764540Y379110D02*
X788767D01*
X762260Y381390D02*
X764540Y379110D01*
X740760Y359760D02*
X746760Y365760D01*
X740760Y371760D02*
X746760Y365760D01*
X792480D02*
Y370030D01*
X789780Y372730D02*
X792480Y370030D01*
X789490Y372730D02*
X789780D01*
X787110Y375110D02*
X789490Y372730D01*
X800550Y399430D02*
X809830Y390150D01*
X726637Y332360D02*
X783617D01*
X798893Y395430D02*
X805830Y388493D01*
X724980Y336360D02*
X781960D01*
X759677Y343520D02*
X783463D01*
X801830Y361887D01*
X805830Y360230D02*
Y388493D01*
X781960Y336360D02*
X805830Y360230D01*
X809830Y358573D02*
Y390150D01*
X783617Y332360D02*
X809830Y358573D01*
X801830Y361887D02*
Y369633D01*
X800370Y371093D02*
X801830Y369633D01*
X800370Y371093D02*
Y378207D01*
X798893Y376730D02*
X800370Y378207D01*
X791147Y376730D02*
X798893D01*
X788767Y379110D02*
X791147Y376730D01*
X769190Y386080D02*
X795020D01*
X785030Y399430D02*
X800550D01*
X766260Y389010D02*
X769190Y386080D01*
X791147Y395430D02*
X798893D01*
X846740Y486060D02*
X848360Y487680D01*
X791980Y477400D02*
X799980D01*
X807720Y485140D01*
X812800D01*
X717900Y566420D02*
X730600Y553720D01*
X815340Y445420D02*
X816260Y444500D01*
X801117Y442400D02*
X810097Y433420D01*
X815340D01*
X805740Y447400D02*
X807720Y445420D01*
X815340D01*
X791980Y447400D02*
X805740D01*
X766260Y389010D02*
Y393711D01*
X773240Y390080D02*
X785797D01*
X770260Y393060D02*
X773240Y390080D01*
X770260Y393060D02*
Y395367D01*
X766560Y399067D02*
X770260Y395367D01*
X756560Y403410D02*
X766260Y393711D01*
X785797Y390080D02*
X791147Y395430D01*
X738300Y265860D02*
X763840Y291400D01*
X738300Y213046D02*
X755650Y195696D01*
X766360Y287400D02*
X826578D01*
X742300Y214703D02*
X768350Y188653D01*
X768017Y283400D02*
X828235D01*
X746300Y216360D02*
X781050Y181610D01*
X746300Y261683D02*
X768017Y283400D01*
X746300Y216360D02*
Y261683D01*
X742300Y263340D02*
X766360Y287400D01*
X742300Y214703D02*
Y263340D01*
X738300Y213046D02*
Y265860D01*
X763840Y291400D02*
X824921D01*
X791980Y442400D02*
X801117D01*
X787400Y274320D02*
X830469D01*
X768350Y255270D02*
X787400Y274320D01*
X802640Y269240D02*
X831045D01*
X781050Y247650D02*
X802640Y269240D01*
X793750Y234960D02*
Y247147D01*
X811143Y264540D01*
X807720Y251460D02*
X816800Y260540D01*
X833659D01*
X811143Y264540D02*
X832002D01*
X913180Y383818D02*
Y452986D01*
X806450Y234960D02*
X807720Y236230D01*
Y251460D01*
X833659Y260540D02*
X900560Y327441D01*
X917180Y382161D02*
Y451329D01*
X900560Y365541D02*
X917180Y382161D01*
X900560Y327441D02*
Y365541D01*
X819150Y234960D02*
Y252730D01*
X822960Y256540D01*
X835316D01*
X831850Y247417D02*
X908560Y324127D01*
X831850Y234960D02*
Y247417D01*
X844550Y254461D02*
X912560Y322471D01*
X844550Y234960D02*
Y254461D01*
X857943Y262197D02*
X916560Y320814D01*
X857943Y235653D02*
Y262197D01*
X871220Y269817D02*
X920560Y319157D01*
X871220Y234960D02*
Y269817D01*
X882650Y275590D02*
X924560Y317500D01*
X882650Y234960D02*
Y275590D01*
X921180Y380504D02*
Y449673D01*
X904560Y363884D02*
X921180Y380504D01*
X904560Y325784D02*
Y363884D01*
X835316Y256540D02*
X904560Y325784D01*
X925180Y378847D02*
Y448016D01*
X908560Y362227D02*
X925180Y378847D01*
X908560Y324127D02*
Y362227D01*
X929180Y377191D02*
Y446359D01*
X912560Y360570D02*
X929180Y377191D01*
X912560Y322471D02*
Y360570D01*
X857250Y234960D02*
X857943Y235653D01*
X941856Y384209D02*
Y428997D01*
X916560Y358914D02*
X941856Y384209D01*
X916560Y320814D02*
Y358914D01*
X920560Y319157D02*
Y357257D01*
X945856Y382553D02*
Y427340D01*
X920560Y357257D02*
X945856Y382553D01*
X924560Y317500D02*
Y355600D01*
X793750Y140960D02*
X800450Y134260D01*
Y129717D02*
Y134260D01*
X806450Y140960D02*
X813150Y134260D01*
Y129717D02*
Y134260D01*
X819150Y140960D02*
X825850Y134260D01*
Y129717D02*
Y134260D01*
X831850Y140960D02*
X838550Y134260D01*
Y129717D02*
Y134260D01*
X844550Y140960D02*
X851250Y134260D01*
Y129717D02*
Y134260D01*
X857250Y140960D02*
X863950Y134260D01*
Y129717D02*
Y134260D01*
X869950Y140960D02*
X876650Y134260D01*
Y129717D02*
Y134260D01*
X882650Y140960D02*
X889350Y134260D01*
Y129717D02*
Y134260D01*
X724120Y329844D02*
X726637Y332360D01*
X724120Y317050D02*
Y329844D01*
X708611Y301540D02*
X724120Y317050D01*
X704611Y303197D02*
X720120Y318707D01*
X704611Y83784D02*
Y303197D01*
X700611Y82127D02*
Y312420D01*
X696610Y80471D02*
Y323231D01*
X692610Y78814D02*
Y346594D01*
X688611Y77157D02*
Y348251D01*
X684611Y75500D02*
Y362030D01*
X680611Y73843D02*
Y365074D01*
X676610Y72186D02*
Y366730D01*
X672610Y70529D02*
Y368890D01*
X700611Y312420D02*
X710770Y322580D01*
X696610Y323231D02*
X705310Y331930D01*
X692610Y346594D02*
X698427Y352410D01*
X688611Y348251D02*
X696770Y356410D01*
X684611Y362030D02*
X688340Y365760D01*
X1531620Y180340D02*
X1574800Y137160D01*
X1501140Y180340D02*
X1531620D01*
X720120Y331501D02*
X724980Y336360D01*
X720120Y318707D02*
Y331501D01*
X713453Y331930D02*
X721883Y340360D01*
X705310Y331930D02*
X713453D01*
X711200Y342900D02*
X718820Y350520D01*
X721883Y340360D02*
X756517D01*
X1584960Y205740D02*
X1619000Y171700D01*
X1501140Y205740D02*
X1584960D01*
X751840Y391160D02*
X752760Y390240D01*
X744220Y391160D02*
X751840D01*
X752760Y383540D02*
Y390240D01*
X741560Y393820D02*
X744220Y391160D01*
X756517Y340360D02*
X759677Y343520D01*
X729900Y371760D02*
X731520D01*
X724820D02*
X729900D01*
X718820Y365760D02*
X724820Y371760D01*
X718820Y350520D02*
Y365760D01*
X706373Y378136D02*
X721560Y393323D01*
X706373Y376767D02*
Y378136D01*
Y376767D02*
X711850Y371290D01*
Y360230D02*
Y371290D01*
X704030Y352410D02*
X711850Y360230D01*
X698427Y352410D02*
X704030D01*
X702373Y379793D02*
X716560Y393980D01*
X702373Y375110D02*
Y379793D01*
Y375110D02*
X707850Y369633D01*
Y361887D02*
Y369633D01*
X702373Y356410D02*
X707850Y361887D01*
X696770Y356410D02*
X702373D01*
X1582420Y281940D02*
X1623000Y241360D01*
X1501140Y281940D02*
X1582420D01*
X1485900Y163480D02*
Y254000D01*
X1483360Y416560D02*
X1485900Y414020D01*
X724020Y365880D02*
X729900Y371760D01*
X724020Y356017D02*
Y365880D01*
X752760Y377540D02*
Y383540D01*
X913180Y452986D02*
X923750Y463556D01*
X917180Y451329D02*
X927750Y461899D01*
X932087Y460580D02*
X947106D01*
X921180Y449673D02*
X932087Y460580D01*
X933744Y456580D02*
X948763D01*
X925180Y448016D02*
X933744Y456580D01*
X935401Y452580D02*
X950420D01*
X929180Y446359D02*
X935401Y452580D01*
X954420Y441340D02*
X1013460Y500380D01*
X954420Y435904D02*
Y441340D01*
X945856Y427340D02*
X954420Y435904D01*
X950420Y437561D02*
Y444960D01*
X941856Y428997D02*
X950420Y437561D01*
X724020Y356017D02*
X725777Y354260D01*
X731520Y359760D02*
X740760D01*
Y371760D02*
Y383540D01*
X728980Y374300D02*
X731520Y371760D01*
X728980Y374300D02*
Y384240D01*
X736560Y387740D02*
X740760Y383540D01*
X726560Y398660D02*
X728980Y396240D01*
X1515820Y746760D02*
X1516380Y747320D01*
X1518120D01*
X1584660Y674980D02*
Y680780D01*
X1518120Y747320D02*
X1584660Y680780D01*
X1323800Y805640D02*
X1444800D01*
X1468120Y782320D01*
X1338580Y770540D02*
X1348740Y760380D01*
X1338580Y770540D02*
Y795020D01*
X1313180D02*
X1323800Y805640D01*
X1320800Y777240D02*
X1338580Y795020D01*
X1313180Y777240D02*
X1320800D01*
X1300480Y789940D02*
X1313180Y777240D01*
X1291120Y789940D02*
X1300480D01*
X1348740Y734660D02*
Y748380D01*
X1224280Y789020D02*
X1244600D01*
X1255020Y799440D01*
X1320800Y601980D02*
Y623920D01*
X1238250Y684530D02*
X1320800Y601980D01*
X1130300Y734060D02*
Y758540D01*
X1071880Y768000D02*
X1089660D01*
X1047580Y772160D02*
X1051740Y768000D01*
X1071880D01*
Y734060D02*
Y756000D01*
X1087120Y734060D02*
X1089660Y736600D01*
Y756000D01*
X1136547Y721470D02*
X1288891D01*
X1127250Y718060D02*
X1160780Y684530D01*
X1134890Y717470D02*
X1290548D01*
X954660Y726060D02*
X1131957D01*
X1136547Y721470D01*
X1130300Y722060D02*
X1134890Y717470D01*
X975360Y718060D02*
X1127250D01*
X1143000Y695500D02*
X1157970Y680530D01*
X1294049Y726628D02*
X1318228D01*
X1288891Y721470D02*
X1294049Y726628D01*
X1295706Y722628D02*
X1319885D01*
X1290548Y717470D02*
X1295706Y722628D01*
X1318228Y726628D02*
X1318260Y726660D01*
X1412020D01*
X956317Y722060D02*
X1130300D01*
X1160780Y684530D02*
X1238250D01*
X1130300Y780940D02*
Y781400D01*
Y770540D02*
Y780940D01*
X972820Y772160D02*
X994580D01*
X962660Y760380D02*
Y767080D01*
X960120Y734060D02*
X962660Y736600D01*
Y748380D01*
X1587500Y335280D02*
X1604140D01*
X1627000Y312420D01*
X1587500Y386080D02*
X1615760D01*
X1631000Y370840D01*
X1587500Y436880D02*
X1620520D01*
X1587500Y462280D02*
X1603440D01*
X1639000Y426720D01*
X1533240Y414940D02*
X1587500Y360680D01*
X1533240Y414940D02*
Y457200D01*
X1545240D02*
X1550320Y462280D01*
X1587500D01*
X1634140Y467360D02*
X1643000Y458500D01*
X1587500Y487680D02*
X1607820Y467360D01*
X1622140D01*
X1587500Y513080D02*
X1597660Y502920D01*
X1622140D01*
X1634140D02*
X1636840D01*
X1647000Y492760D01*
X1587500Y538480D02*
X1619600D01*
X1633220D02*
X1651000Y520700D01*
X1620520Y436880D02*
X1635000Y422400D01*
X1559860Y665480D02*
X1628140D01*
X1536700Y599440D02*
X1559860Y622600D01*
Y665480D01*
X1558903Y599440D02*
X1617980D01*
X1540663Y581200D02*
X1558903Y599440D01*
X1478280Y581200D02*
X1540663D01*
X1628140Y609600D02*
Y640080D01*
X1632539Y650700D02*
X1656080Y627159D01*
X1589940Y650700D02*
X1632539D01*
X1584660Y655980D02*
X1589940Y650700D01*
X1457960Y633380D02*
X1478280Y613060D01*
X1343660Y166020D02*
Y326040D01*
X1320800Y143160D02*
X1343660Y166020D01*
X1465580Y143160D02*
X1485900Y163480D01*
X1338580Y453040D02*
Y618140D01*
X1320800Y635920D02*
X1338580Y618140D01*
X1323340Y276860D02*
Y293720D01*
X1460500Y276860D02*
Y293720D01*
X1465580Y111760D02*
Y131160D01*
X1320800Y114300D02*
Y131160D01*
X1036320Y111760D02*
Y131160D01*
X1178560Y111760D02*
Y131160D01*
X1181100Y274320D02*
Y293720D01*
X1038860Y276860D02*
Y296260D01*
X1041400Y441960D02*
Y458820D01*
X1320800Y439420D02*
Y458820D01*
X1460500Y441960D02*
Y458820D01*
X1457960Y601980D02*
Y621380D01*
X1181100Y604520D02*
Y623920D01*
X1038860Y604520D02*
Y623920D01*
X1122760Y758666D02*
X1122886Y758540D01*
X1130300D01*
X653740Y472400D02*
X677060D01*
X653700Y472440D02*
X653740Y472400D01*
X1038860Y635920D02*
X1056640Y618140D01*
Y455580D02*
Y618140D01*
X1036320Y143160D02*
X1061720Y168560D01*
Y331120D01*
X1181100Y439420D02*
Y456280D01*
Y635920D02*
X1203960Y613060D01*
Y445420D02*
Y613060D01*
X1178560Y143160D02*
X1203960Y168560D01*
Y328580D01*
X1442720Y259080D02*
X1460500Y276860D01*
X1300480Y254000D02*
X1323340Y276860D01*
X1173480Y274320D02*
X1181100D01*
X1153160Y254000D02*
X1173480Y274320D01*
X1021080Y259080D02*
X1038860Y276860D01*
X1442720Y617220D02*
X1457960Y601980D01*
X1442720Y617220D02*
Y695960D01*
X1412020Y726660D02*
X1442720Y695960D01*
X1432560Y469900D02*
X1460500Y441960D01*
X1432560Y469900D02*
Y698500D01*
X1409700Y721360D02*
X1432560Y698500D01*
X1409700Y721360D02*
Y722660D01*
X1319917D02*
X1409700D01*
X1319885Y722628D02*
X1319917Y722660D01*
X952500Y695200D02*
X975360Y718060D01*
X1252220Y508000D02*
X1320800Y439420D01*
X1252220Y508000D02*
Y664903D01*
X1236593Y680530D02*
X1252220Y664903D01*
X1157970Y680530D02*
X1236593D01*
X1032020Y695500D02*
X1143000D01*
X1013460Y714060D02*
X1032020Y695500D01*
X977017Y714060D02*
X1013460D01*
X956500Y693543D02*
X977017Y714060D01*
X1148080Y637540D02*
X1181100Y604520D01*
X1148080Y637540D02*
Y678180D01*
X1134760Y691500D02*
X1148080Y678180D01*
X1030363Y691500D02*
X1134760D01*
X1011803Y710060D02*
X1030363Y691500D01*
X1003300Y710060D02*
X1011803D01*
X1003103Y709863D02*
X1003300Y710060D01*
X978477Y709863D02*
X1003103D01*
X960500Y691886D02*
X978477Y709863D01*
X1176020Y439420D02*
X1181100D01*
X1155700Y459740D02*
X1176020Y439420D01*
X1155700Y459740D02*
Y624263D01*
X1143982Y635982D02*
X1155700Y624263D01*
X1143982Y635982D02*
Y676622D01*
X1133103Y687500D02*
X1143982Y676622D01*
X1028706Y687500D02*
X1133103D01*
X1010146Y706060D02*
X1028706Y687500D01*
X1004957Y706060D02*
X1010146D01*
X1004760Y705863D02*
X1004957Y706060D01*
X980134Y705863D02*
X1004760D01*
X964500Y690229D02*
X980134Y705863D01*
X1013460Y579120D02*
X1038860Y604520D01*
X1010920Y441960D02*
X1041400D01*
X924560Y355600D02*
X1010920Y441960D01*
X1013460Y500380D02*
Y579120D01*
X848360Y487680D02*
X853440D01*
X1125057Y785940D02*
X1135543D01*
X1139543Y781940D02*
X1146681D01*
X1135543Y785940D02*
X1139543Y781940D01*
X1122760Y758666D02*
Y783643D01*
X1125057Y785940D01*
X923750Y463556D02*
Y478096D01*
X930020Y484366D01*
Y701420D02*
X954660Y726060D01*
X927750Y461899D02*
Y476440D01*
X934020Y482710D01*
Y699763D02*
X956317Y722060D01*
X964500Y620583D02*
Y690229D01*
X934020Y628436D02*
Y699763D01*
Y482710D02*
Y580604D01*
X930020Y626779D02*
Y701420D01*
Y484366D02*
Y582261D01*
X921230Y811970D02*
X922020Y811180D01*
X921230Y799970D02*
X922020Y799180D01*
Y784573D02*
Y799180D01*
X790560Y502900D02*
X791060Y502400D01*
X803666Y492400D02*
X804666Y493400D01*
X805781D01*
X759460Y803681D02*
X772209Y816430D01*
X731520Y632460D02*
X745840D01*
X668020D02*
X682340D01*
X675040Y760380D02*
X690880D01*
X673420Y762000D02*
X675040Y760380D01*
X713740Y732440D02*
Y761680D01*
X713420Y762000D02*
X713740Y761680D01*
X693420Y700120D02*
X713740Y720440D01*
X693420Y675640D02*
Y700120D01*
X691717Y675640D02*
X693420D01*
X657400Y641323D02*
X691717Y675640D01*
X657400Y623597D02*
Y641323D01*
X668020Y675640D02*
Y725520D01*
X690880Y748380D01*
X668020Y607060D02*
Y613840D01*
Y670560D02*
Y675640D01*
X690880Y760380D02*
X698500Y752760D01*
Y710857D02*
Y752760D01*
X682800Y695157D02*
X698500Y710857D01*
X682800Y672380D02*
Y695157D01*
X653400Y642980D02*
X682800Y672380D01*
X653400Y621940D02*
Y642980D01*
X747337Y622300D02*
X754380D01*
X720900Y623597D02*
Y627597D01*
Y623597D02*
X722657Y621840D01*
X740383D01*
X716900Y621940D02*
X721001Y617840D01*
X742039D01*
X744090Y619890D01*
X657400Y623597D02*
X659157Y621840D01*
X676883D01*
X653400Y621940D02*
X657501Y617840D01*
X699157D01*
X694340Y632460D02*
X699203Y627597D01*
X720900D01*
X676883Y621840D02*
X676983Y621940D01*
X716900D01*
X745747Y623890D02*
X747337Y622300D01*
X742433Y623890D02*
X745747D01*
X740383Y621840D02*
X742433Y623890D01*
X702500Y743680D02*
X713740Y732440D01*
X702500Y743680D02*
Y759003D01*
X682503Y779000D02*
X702500Y759003D01*
X666177Y779000D02*
X682503D01*
X664420Y777243D02*
X666177Y779000D01*
X664420Y727577D02*
Y777243D01*
X649400Y712557D02*
X664420Y727577D01*
X649400Y610661D02*
Y712557D01*
Y610661D02*
X663621Y596440D01*
X701103D01*
X742600Y554943D01*
Y553720D02*
Y554943D01*
X877381Y697430D02*
X882552D01*
X871880Y702930D02*
X877381Y697430D01*
X805781Y493400D02*
X807941Y495560D01*
X759460Y688340D02*
Y803681D01*
X764280Y694257D02*
X775277Y683260D01*
X757840Y632460D02*
X763080Y627220D01*
X804323Y487400D02*
X806323Y489400D01*
X807437D01*
X824921Y291400D02*
X840861Y307340D01*
X816260Y444500D02*
X835660D01*
X807437Y489400D02*
X809597Y491560D01*
X821083D01*
X807941Y495560D02*
X822739D01*
X815340Y486060D02*
X846740D01*
X874541Y469710D02*
X881570Y476739D01*
X862943Y465710D02*
X876198D01*
X885570Y475082D01*
X815340Y474060D02*
X848936D01*
X861286Y461710D01*
X877854D01*
X849567Y497030D02*
X857313D01*
X862790Y491553D01*
Y483807D02*
Y491553D01*
X857313Y478330D02*
X862790Y483807D01*
X866790Y482150D02*
Y493210D01*
X858970Y501030D02*
X866790Y493210D01*
X847910Y501030D02*
X858970D01*
X840940Y494060D02*
X847910Y501030D01*
X864600Y479960D02*
X866790Y482150D01*
X871597Y469710D02*
X874541D01*
X864600Y476707D02*
X871597Y469710D01*
X864600Y476707D02*
Y479960D01*
X883913Y495400D02*
X888290D01*
X881570Y493057D02*
X883913Y495400D01*
X881570Y476739D02*
Y493057D01*
X857313Y471340D02*
Y478330D01*
Y471340D02*
X862943Y465710D01*
X885570Y475082D02*
Y487023D01*
X822583Y490060D02*
X842597D01*
X849567Y497030D01*
X896205Y480060D02*
X914400D01*
X877854Y461710D02*
X896205Y480060D01*
X824240Y494060D02*
X840940D01*
X821083Y491560D02*
X822583Y490060D01*
X822739Y495560D02*
X824240Y494060D01*
X699157Y617840D02*
X720557Y596440D01*
X749760D01*
X763080Y621983D02*
Y627220D01*
X749760Y596440D02*
X756560Y589640D01*
X744090Y619890D02*
X761560Y602420D01*
X754380Y622300D02*
X766560Y610120D01*
X763080Y621983D02*
X771560Y613503D01*
X779780Y546828D02*
X791220Y535388D01*
X779780Y546828D02*
Y610940D01*
X767080Y623640D02*
X779780Y610940D01*
X791220Y507560D02*
Y535388D01*
X767080Y623640D02*
Y680720D01*
X759460Y688340D02*
X767080Y680720D01*
X775277Y621100D02*
Y683260D01*
X768280Y696702D02*
X779277Y685705D01*
Y622757D02*
Y685705D01*
X790560Y497900D02*
X791060Y497400D01*
X828780Y691760D02*
X849980Y670560D01*
X861980D02*
X876300D01*
X816780Y640260D02*
X849980Y607060D01*
Y543560D02*
Y596817D01*
X809780Y637017D02*
X849980Y596817D01*
X809780Y637017D02*
Y697930D01*
X861980Y543560D02*
X876300D01*
X861980Y607060D02*
X876300D01*
X835660Y751840D02*
Y782320D01*
X862770Y809430D01*
X889780D01*
X835660Y731520D02*
Y751840D01*
X807720Y731520D02*
X835660D01*
X795020Y718820D02*
X807720Y731520D01*
X772209Y816430D02*
X806630D01*
X795020Y716630D02*
Y718820D01*
X787820Y709430D02*
X795020Y716630D01*
X835660Y731520D02*
X864730D01*
X886820Y709430D01*
X764280Y694257D02*
Y748501D01*
X772209Y756430D02*
X779780D01*
X764280Y748501D02*
X772209Y756430D01*
X828235Y283400D02*
X851280Y306445D01*
X826578Y287400D02*
X847280Y308102D01*
X791060Y422240D02*
X800100Y413200D01*
X851280Y306445D02*
Y447760D01*
X847280Y308102D02*
Y446103D01*
X800100Y408940D02*
Y413200D01*
X655340Y132080D02*
Y206020D01*
X640080Y221280D02*
X655340Y206020D01*
X649580Y246080D02*
Y379163D01*
X780146Y481900D02*
X790560D01*
X791060Y482400D01*
X530860Y622300D02*
X556260D01*
X480060D02*
X506540Y595820D01*
X480060Y495300D02*
X502540Y472820D01*
X572420Y571500D02*
X579120Y578200D01*
X572420Y546100D02*
X579120Y539400D01*
X556260Y520700D02*
X572420D01*
X579120Y527400D01*
X572420Y596900D02*
X579120Y590200D01*
X556260Y596900D02*
X572420D01*
X579120Y590200D02*
X601980Y613060D01*
Y795020D01*
X579120Y527400D02*
X627380Y575660D01*
Y795020D01*
X457200Y524860D02*
X461360Y520700D01*
X480060D01*
X457200Y536860D02*
Y541020D01*
X462280Y546100D01*
X480060D01*
X457200Y578200D02*
X463900Y571500D01*
X480060D01*
X457200Y590200D02*
X463900Y596900D01*
X480060D01*
X441960Y540100D02*
X457200Y524860D01*
X441960Y540100D02*
Y789940D01*
X447040Y795020D01*
X457200Y590200D02*
Y779780D01*
X472440Y795020D01*
X885570Y487023D02*
X909320Y510773D01*
Y771873D01*
X922020Y784573D01*
X888290Y495400D02*
X905320Y512430D01*
Y674662D01*
X882552Y697430D02*
X905320Y674662D01*
X785690Y809430D02*
X812800Y782320D01*
Y774700D02*
Y782320D01*
X803163Y751840D02*
X822150Y770827D01*
Y800910D01*
X806630Y816430D02*
X822150Y800910D01*
X480060Y647700D02*
X510540Y617220D01*
Y535940D02*
Y617220D01*
X558800Y469900D02*
X584200Y495300D01*
X530860Y521277D02*
Y622300D01*
X506540Y532320D02*
Y595820D01*
X578543Y495300D02*
X582543Y499300D01*
X630580Y246080D02*
Y278740D01*
X629920Y279400D02*
X630580Y278740D01*
X680611Y365074D02*
X711560Y396023D01*
X668611Y68873D02*
Y371431D01*
X676610Y366730D02*
X706560Y396680D01*
X672610Y368890D02*
X701560Y397840D01*
X688340Y365760D02*
X698500D01*
X243840Y155860D02*
Y175260D01*
X269240Y155860D02*
Y175260D01*
X396240Y155860D02*
Y175260D01*
X370840Y155860D02*
Y175260D01*
X320040Y155860D02*
Y175260D01*
X221900Y143860D02*
X243840D01*
X177800Y187960D02*
X221900Y143860D01*
X260700D02*
X269240D01*
X255700Y138860D02*
X260700Y143860D01*
X221243Y138860D02*
X255700D01*
X149860Y210243D02*
X221243Y138860D01*
X149860Y235643D02*
Y378460D01*
X310800Y134620D02*
X320040Y143860D01*
X219826Y134620D02*
X310800D01*
X137160Y217286D02*
X219826Y134620D01*
X137160Y242686D02*
Y378460D01*
X357600Y130620D02*
X370840Y143860D01*
X218169Y130620D02*
X357600D01*
X124460Y224329D02*
X218169Y130620D01*
X124460Y249729D02*
Y378460D01*
X379000Y126620D02*
X396240Y143860D01*
X216280Y126620D02*
X379000D01*
X111760Y231140D02*
X216280Y126620D01*
X111760Y256540D02*
Y378460D01*
X269240Y632460D02*
Y651860D01*
X320040Y632460D02*
Y651860D01*
X345440Y632460D02*
Y651860D01*
X124460Y609600D02*
X178720Y663860D01*
X124460Y429260D02*
Y609600D01*
X315040Y668860D02*
X320040Y663860D01*
X111760Y429260D02*
Y602557D01*
X99060Y595514D02*
X176406Y672860D01*
X99060Y429260D02*
Y595514D01*
X218740Y540720D02*
Y572160D01*
Y540720D02*
X309880Y449580D01*
Y434340D02*
Y449580D01*
X256840Y517860D02*
Y572160D01*
Y517860D02*
X322580Y452120D01*
Y434340D02*
Y452120D01*
X294940Y492460D02*
Y572160D01*
Y492460D02*
X335280Y452120D01*
Y434340D02*
Y452120D01*
X338120Y464520D02*
Y572160D01*
Y464520D02*
X347980Y454660D01*
Y434340D02*
Y454660D01*
X218740Y591160D02*
Y632160D01*
X218440Y632460D02*
X218740Y632160D01*
X256840Y591160D02*
Y596600D01*
X243840Y609600D02*
X256840Y596600D01*
X243840Y609600D02*
Y632460D01*
X294940Y591160D02*
Y632160D01*
X294640Y632460D02*
X294940Y632160D01*
X338120Y591160D02*
Y599740D01*
X370840Y632460D01*
X378760Y591160D02*
Y614980D01*
X396240Y632460D01*
X294640Y175260D02*
Y188920D01*
X312120Y206400D01*
X218440Y175260D02*
X249580Y206400D01*
X268940D01*
X345440Y175260D02*
Y196540D01*
X355300Y206400D01*
Y225400D02*
Y246680D01*
X347980Y254000D02*
X355300Y246680D01*
X347980Y254000D02*
Y383540D01*
X312120Y225400D02*
Y256240D01*
X335280Y279400D01*
Y383540D01*
X268940Y225400D02*
Y261320D01*
X322580Y314960D01*
Y383540D01*
X99060Y233680D02*
X210120Y122620D01*
X407100D01*
X86360Y240723D02*
X208463Y118620D01*
X408757D01*
X611060Y320923D01*
X676678Y432782D02*
X677060Y432400D01*
X378760Y538780D02*
Y572160D01*
X147320Y393700D02*
X165100D01*
X137160Y403860D02*
X147320Y393700D01*
X137160Y403860D02*
Y429260D01*
X378460Y538480D02*
X378760Y538780D01*
X360680Y383540D02*
X367586D01*
Y374276D02*
Y383540D01*
X149860Y429260D02*
Y434340D01*
X157480Y441960D01*
X236220D02*
X256540Y421640D01*
X390699D01*
X369343Y445341D02*
X588678D01*
X587514Y487300D02*
X619380D01*
X585857Y491300D02*
X617723D01*
X584200Y495300D02*
X616066D01*
X582543Y499300D02*
X614409D01*
X665680Y482400D02*
X677060D01*
X666994Y492400D02*
X677060D01*
X666560Y504657D02*
Y509460D01*
X662560Y503000D02*
Y503300D01*
X360680Y434340D02*
Y436678D01*
X369343Y445341D01*
X396859Y434340D02*
X403860Y441341D01*
X590335D01*
X601114Y452120D01*
X633920D01*
X390699Y421640D02*
X406400Y437341D01*
X593741D01*
X604520Y448120D01*
X635577D01*
X243263Y429260D02*
X254883Y417640D01*
X393239D01*
X408940Y433341D01*
X596281D01*
X607060Y444120D01*
X637234D01*
X643394Y450280D01*
X607060Y377306D02*
X667154Y437400D01*
X677060D01*
X611060Y320923D02*
Y375649D01*
X668192Y432782D01*
X676678D01*
X635577Y448120D02*
X642117Y454660D01*
X629920Y462280D02*
X630300Y462660D01*
X633920Y452120D02*
X640460Y458660D01*
X642117Y454660D02*
X660400D01*
X640460Y458660D02*
X658743D01*
X630300Y462660D02*
X657086D01*
X658743Y458660D02*
X662483Y462400D01*
X677060D01*
X643394Y450280D02*
X663063D01*
X297180Y383540D02*
Y398400D01*
X312420Y413640D01*
X395860D01*
X411480Y429260D01*
X598740D01*
X609600Y440120D01*
X638890D01*
X645051Y446280D01*
X664720D01*
X309880Y383540D02*
Y399480D01*
X320040Y409640D01*
X397517D01*
X413038Y425162D01*
X601182D01*
X612140Y436120D01*
X640547D01*
X646387Y441960D01*
X674700D01*
X251460Y480060D02*
X297180Y434340D01*
X241300Y480060D02*
X251460D01*
X78740Y238760D02*
Y421640D01*
Y238760D02*
X208280Y109220D01*
X416560D01*
X336440Y672860D02*
X345440Y663860D01*
X176406Y672860D02*
X336440D01*
X111760Y602557D02*
X178063Y668860D01*
X315040D01*
X178720Y663860D02*
X269240D01*
X177800Y187960D02*
Y381000D01*
X165100Y393700D02*
X177800Y381000D01*
X149860Y210243D02*
Y235643D01*
X137160Y217286D02*
Y242686D01*
X124460Y224329D02*
Y249729D01*
X111760Y231140D02*
Y256540D01*
X157480Y441960D02*
X236220D01*
X711560Y396023D02*
Y412900D01*
X827120Y421640D02*
X835660D01*
X864780Y702930D02*
X871880D01*
X791060Y492400D02*
X803666D01*
X790560Y497900D02*
X801974D01*
X721560Y393323D02*
Y412900D01*
X791060Y467400D02*
X842953D01*
X781050Y234960D02*
Y247650D01*
X761560Y526900D02*
Y602420D01*
X556260Y469900D02*
X558800D01*
X771560Y412900D02*
X785030Y399430D01*
X791060Y462400D02*
X842297D01*
X768350Y234960D02*
Y255270D01*
X892320Y799970D02*
X921230D01*
X889780Y797430D02*
X892320Y799970D01*
X791060Y487400D02*
X804323D01*
X556260Y495300D02*
X578543D01*
X726560Y398660D02*
Y412900D01*
X791060Y457400D02*
X829680D01*
X781050Y140960D02*
Y181610D01*
X756560Y526900D02*
X756920Y527260D01*
X756560Y526900D02*
Y589640D01*
X162560Y429260D02*
X243263D01*
X716560Y393980D02*
Y412900D01*
X746560Y396440D02*
Y412900D01*
X791060Y452400D02*
X830337D01*
X768350Y140960D02*
Y188653D01*
X766560Y526900D02*
Y610120D01*
X373380Y434340D02*
X396859D01*
X86360Y266123D02*
Y378460D01*
Y240723D02*
Y269240D01*
X751560Y402754D02*
Y412900D01*
X791060Y437400D02*
X799303D01*
X755650Y140960D02*
Y195696D01*
X771560Y526900D02*
Y613503D01*
X99060Y233680D02*
Y259080D01*
Y378460D01*
X1255020Y799440D02*
X1264120D01*
X1291120Y780440D02*
Y789940D01*
X701560Y397840D02*
Y412900D01*
X706560Y396680D02*
Y412900D01*
X895350Y139700D02*
X919480D01*
X791060Y422240D02*
Y432400D01*
X779780Y749430D02*
X782190Y751840D01*
X803163D01*
X791060Y507400D02*
X791220Y507560D01*
X895350Y236220D02*
X919480D01*
X756560Y403410D02*
Y412900D01*
X766560Y399067D02*
Y412900D01*
X790560Y502900D02*
X799803D01*
X779780Y756430D02*
Y761430D01*
X661826Y467400D02*
X677100D01*
X708700D01*
X779420Y472400D02*
X791100D01*
X805140D01*
X779780Y809430D02*
X782320D01*
X785690D01*
X804780Y702930D02*
X809780Y697930D01*
X1516380Y599440D02*
X1516400D01*
X1536700D01*
X816780Y640260D02*
Y702930D01*
X828780Y691760D02*
Y702930D01*
X1230874Y752200D02*
X1259200D01*
X1229054Y750380D02*
X1230874Y752200D01*
X1179720Y750380D02*
X1229054D01*
X1146681Y781940D02*
X1153320Y775300D01*
X1242660D01*
X1257300Y789940D01*
X1130300Y770540D02*
X1243557D01*
X1253457Y780440D01*
X1264120D01*
X1130300Y792940D02*
Y805180D01*
X162560Y358140D02*
Y378460D01*
X741560Y393820D02*
Y434540D01*
X746560Y505260D02*
Y542140D01*
X1485900Y274320D02*
X1503680Y256540D01*
X1617980Y599440D02*
X1628140Y609600D01*
X1259200Y752200D02*
X1278280Y771280D01*
Y794580D02*
X1283140Y799440D01*
X1278280Y771280D02*
Y794580D01*
X1224280Y801020D02*
X1236760Y813500D01*
X1283800D01*
X1291120Y806180D01*
Y799440D02*
Y806180D01*
X1173300Y756800D02*
X1179720Y750380D01*
X1283140Y799440D02*
X1291120D01*
X78740Y421640D02*
X86360Y429260D01*
X373380Y383540D02*
X401320D01*
X736560Y387740D02*
Y412900D01*
X755650Y234960D02*
Y257810D01*
X731560Y526900D02*
Y535143D01*
X480060Y546100D02*
Y571500D01*
X556260Y546100D02*
X572420D01*
X556260D02*
Y571500D01*
X572420D01*
X889780Y809430D02*
X892320Y811970D01*
X921230D01*
X1257300Y789940D02*
X1264120D01*
D30*
X1120140Y805180D02*
X1130300D01*
X1108900Y793940D02*
X1120140Y805180D01*
X1104900Y793940D02*
X1108900D01*
X942700D02*
X1104900D01*
X922020Y773260D02*
X942700Y793940D01*
X1414220Y746760D02*
X1515820D01*
X1402120Y734660D02*
X1414220Y746760D01*
X1348740Y734660D02*
X1402120D01*
X1287845D02*
X1348740D01*
X1130300Y734060D02*
X1135271D01*
X1087120D02*
X1130300D01*
X1071880D02*
X1087120D01*
X960120D02*
X1071880D01*
X1135271D02*
X1139861Y729470D01*
X1282654D02*
X1287845Y734660D01*
X939800Y772160D02*
X972820D01*
X1478280Y416560D02*
X1483360D01*
X1343660D02*
X1478280D01*
X1338580D02*
X1343660D01*
X1056640D02*
X1061720D01*
X1203960D02*
X1338580D01*
X1061720D02*
X1203960D01*
X1031240Y424180D02*
X1038860Y416560D01*
X1056640D01*
X914400Y480060D02*
X922020Y487680D01*
Y762000D01*
Y773260D01*
X556260Y698500D02*
X589280Y731520D01*
X556260Y647700D02*
Y698500D01*
X1130300Y805180D02*
X1160820D01*
X1173710Y792290D01*
Y789710D02*
Y792290D01*
X1139861Y729470D02*
X1282654D01*
X1516380Y747320D02*
X1518920Y749860D01*
D31*
X1485900Y274320D02*
Y331120D01*
Y254000D02*
Y274320D01*
Y331120D02*
Y414020D01*
X1478280Y453040D02*
Y581200D01*
Y613060D01*
X1460500Y470820D02*
X1478280Y453040D01*
Y416560D02*
Y453040D01*
X1460500Y305720D02*
X1485900Y331120D01*
X1343660Y326040D02*
Y416560D01*
X1323340Y305720D02*
X1343660Y326040D01*
X1338580Y416560D02*
Y453040D01*
X1320800Y470820D02*
X1338580Y453040D01*
X1056640Y416560D02*
Y455580D01*
X1041400Y470820D02*
X1056640Y455580D01*
X1181100Y305720D02*
X1203960Y328580D01*
Y416560D01*
X1038860Y308260D02*
X1061720Y331120D01*
X1181100Y468280D02*
X1203960Y445420D01*
Y416560D02*
Y445420D01*
X1061720Y331120D02*
Y416560D01*
X406400Y581660D02*
X419100Y568960D01*
X243540Y581660D02*
X281640D01*
X319740D01*
X362920D01*
X403560D01*
X406400D01*
X244140Y215900D02*
X287320D01*
X330500D01*
X373380D01*
D32*
X1618000Y599440D02*
D03*
X1516400D02*
D03*
X720900Y132000D02*
D03*
X654900D02*
D03*
X668020Y607060D02*
D03*
X731520D02*
D03*
X693420Y675640D02*
D03*
X668020D02*
D03*
X718820D02*
D03*
X627380Y795020D02*
D03*
X601980D02*
D03*
X1338580D02*
D03*
X1313180D02*
D03*
X1363980D02*
D03*
X1587500Y538480D02*
D03*
Y513080D02*
D03*
Y487680D02*
D03*
Y462280D02*
D03*
X1457960Y703580D02*
D03*
X1356360Y601980D02*
D03*
X1457960D02*
D03*
X1407160D02*
D03*
X1181100Y706120D02*
D03*
X1079500Y604520D02*
D03*
X1181100D02*
D03*
X1130300D02*
D03*
X1038860Y706120D02*
D03*
X937260Y604520D02*
D03*
X1038860D02*
D03*
X988060D02*
D03*
X1041400Y543560D02*
D03*
X939800Y441960D02*
D03*
X1041400D02*
D03*
X990600D02*
D03*
X1181100Y541020D02*
D03*
X1079500Y439420D02*
D03*
X1181100D02*
D03*
X1130300D02*
D03*
X1320800Y541020D02*
D03*
X1219200Y439420D02*
D03*
X1320800D02*
D03*
X1270000D02*
D03*
X1460500Y543560D02*
D03*
X1358900Y441960D02*
D03*
X1460500D02*
D03*
X1409700D02*
D03*
X1460500Y378460D02*
D03*
X1358900Y276860D02*
D03*
X1460500D02*
D03*
X1409700D02*
D03*
X1323340Y378460D02*
D03*
X1221740Y276860D02*
D03*
X1323340D02*
D03*
X1272540D02*
D03*
X1181100Y375920D02*
D03*
X1079500Y274320D02*
D03*
X1181100D02*
D03*
X1130300D02*
D03*
X1036320Y213360D02*
D03*
X934720Y111760D02*
D03*
X1036320D02*
D03*
X985520D02*
D03*
X1038860Y378460D02*
D03*
X937260Y276860D02*
D03*
X1038860D02*
D03*
X988060D02*
D03*
X1178560Y213360D02*
D03*
X1076960Y111760D02*
D03*
X1178560D02*
D03*
X1127760D02*
D03*
X1320800Y215900D02*
D03*
X1219200Y114300D02*
D03*
X1320800D02*
D03*
X1270000D02*
D03*
X1465580Y213360D02*
D03*
X1363980Y111760D02*
D03*
X1465580D02*
D03*
X1414780D02*
D03*
X1628140Y665480D02*
D03*
Y640080D02*
D03*
X1587500Y386080D02*
D03*
Y360680D02*
D03*
Y335280D02*
D03*
X472440Y795020D02*
D03*
X447040D02*
D03*
X1320800Y703580D02*
D03*
X1219200Y601980D02*
D03*
X1320800D02*
D03*
X1270000D02*
D03*
X876300Y645160D02*
D03*
Y581660D02*
D03*
Y518160D02*
D03*
D33*
X556300Y470000D02*
D03*
Y495400D02*
D03*
Y622400D02*
D03*
Y647800D02*
D03*
Y520800D02*
D03*
Y546200D02*
D03*
Y597000D02*
D03*
Y571600D02*
D03*
X480100Y647800D02*
D03*
Y622400D02*
D03*
Y597000D02*
D03*
Y571600D02*
D03*
Y546200D02*
D03*
Y520800D02*
D03*
Y495400D02*
D03*
Y470000D02*
D03*
D34*
X668020Y632460D02*
D03*
X731520D02*
D03*
X1587500Y436880D02*
D03*
X876300Y670560D02*
D03*
Y607060D02*
D03*
Y543560D02*
D03*
D35*
X48260Y48260D02*
D03*
Y772160D02*
D03*
X1610360D02*
D03*
Y48260D02*
D03*
D36*
X713420Y762000D02*
D03*
X673420D02*
D03*
D37*
X1501140Y154940D02*
D03*
Y180340D02*
D03*
Y205740D02*
D03*
Y281940D02*
D03*
Y231140D02*
D03*
Y256540D02*
D03*
D38*
X1468120Y782320D02*
D03*
X1518120Y747320D02*
D03*
D39*
X218440Y175260D02*
D03*
X243840D02*
D03*
X269240D02*
D03*
X294640D02*
D03*
X320040D02*
D03*
X345440D02*
D03*
X370840D02*
D03*
X396240D02*
D03*
X218440Y632460D02*
D03*
X243840D02*
D03*
X269240D02*
D03*
X294640D02*
D03*
X320040D02*
D03*
X345440D02*
D03*
X370840D02*
D03*
D40*
X396240D02*
D03*
D41*
X640080Y487680D02*
D03*
X833120Y421640D02*
D03*
X792480Y365760D02*
D03*
X795020Y386080D02*
D03*
X717900Y566420D02*
D03*
X835660Y444500D02*
D03*
X939800Y772160D02*
D03*
X755650Y257810D02*
D03*
X919480Y236220D02*
D03*
X711200Y342900D02*
D03*
X710770Y322580D02*
D03*
X919480Y139700D02*
D03*
X1031240Y424180D02*
D03*
X914400Y480060D02*
D03*
X853440Y487680D02*
D03*
X835660Y751840D02*
D03*
X800100Y408940D02*
D03*
X922020Y762000D02*
D03*
X812800Y774700D02*
D03*
X629920Y279400D02*
D03*
X698500Y365760D02*
D03*
X746760D02*
D03*
X629920Y462280D02*
D03*
X589280Y731520D02*
D03*
X419100Y568960D02*
D03*
X373380Y215900D02*
D03*
X401320Y383540D02*
D03*
X162560Y358140D02*
D03*
X378460Y538480D02*
D03*
X388620Y370840D02*
D03*
X241300Y480060D02*
D03*
X416560Y109220D02*
D03*
M02*
