%FSLAX44Y44*%
%MOMM*%
G71*
G01*
G75*
G04 Layer_Color=32896*
%ADD10R,1.1000X0.6000*%
%ADD11R,1.5000X0.2500*%
%ADD12R,0.2500X1.5000*%
%ADD13R,0.6000X2.0000*%
%ADD14R,0.5588X1.6002*%
%ADD15R,0.8000X0.4000*%
%ADD16R,0.9000X0.5000*%
%ADD17C,1.2000*%
G04:AMPARAMS|DCode=18|XSize=1.5mm|YSize=0.8mm|CornerRadius=0.2mm|HoleSize=0mm|Usage=FLASHONLY|Rotation=0.000|XOffset=0mm|YOffset=0mm|HoleType=Round|Shape=RoundedRectangle|*
%AMROUNDEDRECTD18*
21,1,1.5000,0.4000,0,0,0.0*
21,1,1.1000,0.8000,0,0,0.0*
1,1,0.4000,0.5500,-0.2000*
1,1,0.4000,-0.5500,-0.2000*
1,1,0.4000,-0.5500,0.2000*
1,1,0.4000,0.5500,0.2000*
%
%ADD18ROUNDEDRECTD18*%
G04:AMPARAMS|DCode=19|XSize=1.5mm|YSize=0.8mm|CornerRadius=0.2mm|HoleSize=0mm|Usage=FLASHONLY|Rotation=90.000|XOffset=0mm|YOffset=0mm|HoleType=Round|Shape=RoundedRectangle|*
%AMROUNDEDRECTD19*
21,1,1.5000,0.4000,0,0,90.0*
21,1,1.1000,0.8000,0,0,90.0*
1,1,0.4000,0.2000,0.5500*
1,1,0.4000,0.2000,-0.5500*
1,1,0.4000,-0.2000,-0.5500*
1,1,0.4000,-0.2000,0.5500*
%
%ADD19ROUNDEDRECTD19*%
%ADD20O,1.0000X1.6000*%
G04:AMPARAMS|DCode=21|XSize=1.6mm|YSize=1.8mm|CornerRadius=0.4mm|HoleSize=0mm|Usage=FLASHONLY|Rotation=0.000|XOffset=0mm|YOffset=0mm|HoleType=Round|Shape=RoundedRectangle|*
%AMROUNDEDRECTD21*
21,1,1.6000,1.0000,0,0,0.0*
21,1,0.8000,1.8000,0,0,0.0*
1,1,0.8000,0.4000,-0.5000*
1,1,0.8000,-0.4000,-0.5000*
1,1,0.8000,-0.4000,0.5000*
1,1,0.8000,0.4000,0.5000*
%
%ADD21ROUNDEDRECTD21*%
%ADD22R,0.5000X0.9000*%
%ADD23R,1.7000X2.2000*%
%ADD24R,0.5000X0.6000*%
%ADD25R,0.4000X0.8000*%
%ADD26R,0.6000X0.5000*%
%ADD27R,0.6000X0.6000*%
%ADD28R,4.5000X1.7500*%
%ADD29C,0.2000*%
%ADD30C,1.0000*%
%ADD31C,0.4000*%
%ADD32C,1.5240*%
%ADD33O,2.6416X1.3208*%
%ADD34R,1.5240X1.5240*%
%ADD35C,2.4000*%
%ADD36R,1.2000X2.8000*%
%ADD37C,1.8000*%
%ADD38C,2.0000*%
%ADD39C,1.7000*%
%ADD40R,1.7000X1.7000*%
%ADD41C,1.2700*%
%ADD42C,0.1000*%
%ADD43C,0.1524*%
%ADD44C,0.1500*%
%ADD45C,0.0500*%
%ADD46C,0.1270*%
%ADD47C,0.2540*%
%ADD48R,1.1800X0.6800*%
%ADD49R,1.5800X0.3300*%
%ADD50R,0.3300X1.5800*%
%ADD51R,0.6800X2.0800*%
%ADD52R,0.6388X1.6802*%
%ADD53R,0.8800X0.4800*%
%ADD54R,0.9800X0.5800*%
%ADD55C,1.2800*%
G04:AMPARAMS|DCode=56|XSize=1.58mm|YSize=0.88mm|CornerRadius=0.24mm|HoleSize=0mm|Usage=FLASHONLY|Rotation=0.000|XOffset=0mm|YOffset=0mm|HoleType=Round|Shape=RoundedRectangle|*
%AMROUNDEDRECTD56*
21,1,1.5800,0.4000,0,0,0.0*
21,1,1.1000,0.8800,0,0,0.0*
1,1,0.4800,0.5500,-0.2000*
1,1,0.4800,-0.5500,-0.2000*
1,1,0.4800,-0.5500,0.2000*
1,1,0.4800,0.5500,0.2000*
%
%ADD56ROUNDEDRECTD56*%
G04:AMPARAMS|DCode=57|XSize=1.58mm|YSize=0.88mm|CornerRadius=0.24mm|HoleSize=0mm|Usage=FLASHONLY|Rotation=90.000|XOffset=0mm|YOffset=0mm|HoleType=Round|Shape=RoundedRectangle|*
%AMROUNDEDRECTD57*
21,1,1.5800,0.4000,0,0,90.0*
21,1,1.1000,0.8800,0,0,90.0*
1,1,0.4800,0.2000,0.5500*
1,1,0.4800,0.2000,-0.5500*
1,1,0.4800,-0.2000,-0.5500*
1,1,0.4800,-0.2000,0.5500*
%
%ADD57ROUNDEDRECTD57*%
%ADD58O,1.0800X1.6800*%
G04:AMPARAMS|DCode=59|XSize=1.68mm|YSize=1.88mm|CornerRadius=0.44mm|HoleSize=0mm|Usage=FLASHONLY|Rotation=0.000|XOffset=0mm|YOffset=0mm|HoleType=Round|Shape=RoundedRectangle|*
%AMROUNDEDRECTD59*
21,1,1.6800,1.0000,0,0,0.0*
21,1,0.8000,1.8800,0,0,0.0*
1,1,0.8800,0.4000,-0.5000*
1,1,0.8800,-0.4000,-0.5000*
1,1,0.8800,-0.4000,0.5000*
1,1,0.8800,0.4000,0.5000*
%
%ADD59ROUNDEDRECTD59*%
%ADD60R,0.5800X0.9800*%
%ADD61R,1.7800X2.2800*%
%ADD62R,0.5800X0.6800*%
%ADD63R,0.4800X0.8800*%
%ADD64R,0.6800X0.5800*%
%ADD65R,0.6800X0.6800*%
%ADD66R,4.5800X1.8300*%
%ADD67C,1.6040*%
%ADD68O,2.7216X1.4008*%
%ADD69R,1.6040X1.6040*%
%ADD70C,2.4800*%
%ADD71R,1.2800X2.8800*%
%ADD72C,1.8800*%
%ADD73C,2.0800*%
%ADD74C,1.7800*%
%ADD75R,1.7800X1.7800*%
%ADD76C,1.3500*%
D44*
X747900Y132000D02*
G03*
X747900Y132000I-60000J0D01*
G01*
X737176D02*
G03*
X737176Y132000I-16276J0D01*
G01*
X697520Y619760D02*
G03*
X697520Y619760I-29500J0D01*
G01*
X761020D02*
G03*
X761020Y619760I-29500J0D01*
G01*
X650022Y688340D02*
G03*
X650022Y688340I-3592J0D01*
G01*
X748420Y762000D02*
G03*
X748420Y762000I-55000J0D01*
G01*
X1295182Y807720D02*
G03*
X1295182Y807720I-3592J0D01*
G01*
X905800Y657860D02*
G03*
X905800Y657860I-29500J0D01*
G01*
Y594360D02*
G03*
X905800Y594360I-29500J0D01*
G01*
Y530860D02*
G03*
X905800Y530860I-29500J0D01*
G01*
X637420Y655640D02*
Y695640D01*
X749420Y655640D02*
Y695640D01*
X637420D02*
X749420D01*
X637420Y655640D02*
X749420D01*
X1282580Y775020D02*
Y815020D01*
X1394580Y775020D02*
Y815020D01*
X1282580D02*
X1394580D01*
X1282580Y775020D02*
X1394580D01*
X1366360Y693580D02*
X1447960D01*
X1366360Y611980D02*
Y693580D01*
X1346360Y713580D02*
X1467960D01*
X1346360Y591980D02*
Y713580D01*
X1467960Y591980D02*
Y713580D01*
X1346360Y591980D02*
X1467960D01*
X1366360Y611980D02*
X1447960D01*
Y693580D01*
X1089500Y696120D02*
X1171100D01*
X1089500Y614520D02*
Y696120D01*
X1069500Y716120D02*
X1191100D01*
X1069500Y594520D02*
Y716120D01*
X1191100Y594520D02*
Y716120D01*
X1069500Y594520D02*
X1191100D01*
X1089500Y614520D02*
X1171100D01*
Y696120D01*
X947260D02*
X1028860D01*
X947260Y614520D02*
Y696120D01*
X927260Y716120D02*
X1048860D01*
X927260Y594520D02*
Y716120D01*
X1048860Y594520D02*
Y716120D01*
X927260Y594520D02*
X1048860D01*
X947260Y614520D02*
X1028860D01*
Y696120D01*
X949800Y533560D02*
X1031400D01*
X949800Y451960D02*
Y533560D01*
X929800Y553560D02*
X1051400D01*
X929800Y431960D02*
Y553560D01*
X1051400Y431960D02*
Y553560D01*
X929800Y431960D02*
X1051400D01*
X949800Y451960D02*
X1031400D01*
Y533560D01*
X1089500Y531020D02*
X1171100D01*
X1089500Y449420D02*
Y531020D01*
X1069500Y551020D02*
X1191100D01*
X1069500Y429420D02*
Y551020D01*
X1191100Y429420D02*
Y551020D01*
X1069500Y429420D02*
X1191100D01*
X1089500Y449420D02*
X1171100D01*
Y531020D01*
X1229200D02*
X1310800D01*
X1229200Y449420D02*
Y531020D01*
X1209200Y551020D02*
X1330800D01*
X1209200Y429420D02*
Y551020D01*
X1330800Y429420D02*
Y551020D01*
X1209200Y429420D02*
X1330800D01*
X1229200Y449420D02*
X1310800D01*
Y531020D01*
X1368900Y533560D02*
X1450500D01*
X1368900Y451960D02*
Y533560D01*
X1348900Y553560D02*
X1470500D01*
X1348900Y431960D02*
Y553560D01*
X1470500Y431960D02*
Y553560D01*
X1348900Y431960D02*
X1470500D01*
X1368900Y451960D02*
X1450500D01*
Y533560D01*
X1368900Y368460D02*
X1450500D01*
X1368900Y286860D02*
Y368460D01*
X1348900Y388460D02*
X1470500D01*
X1348900Y266860D02*
Y388460D01*
X1470500Y266860D02*
Y388460D01*
X1348900Y266860D02*
X1470500D01*
X1368900Y286860D02*
X1450500D01*
Y368460D01*
X1231740D02*
X1313340D01*
X1231740Y286860D02*
Y368460D01*
X1211740Y388460D02*
X1333340D01*
X1211740Y266860D02*
Y388460D01*
X1333340Y266860D02*
Y388460D01*
X1211740Y266860D02*
X1333340D01*
X1231740Y286860D02*
X1313340D01*
Y368460D01*
X1089500Y365920D02*
X1171100D01*
X1089500Y284320D02*
Y365920D01*
X1069500Y385920D02*
X1191100D01*
X1069500Y264320D02*
Y385920D01*
X1191100Y264320D02*
Y385920D01*
X1069500Y264320D02*
X1191100D01*
X1089500Y284320D02*
X1171100D01*
Y365920D01*
X944720Y203360D02*
X1026320D01*
X944720Y121760D02*
Y203360D01*
X924720Y223360D02*
X1046320D01*
X924720Y101760D02*
Y223360D01*
X1046320Y101760D02*
Y223360D01*
X924720Y101760D02*
X1046320D01*
X944720Y121760D02*
X1026320D01*
Y203360D01*
X947260Y368460D02*
X1028860D01*
X947260Y286860D02*
Y368460D01*
X927260Y388460D02*
X1048860D01*
X927260Y266860D02*
Y388460D01*
X1048860Y266860D02*
Y388460D01*
X927260Y266860D02*
X1048860D01*
X947260Y286860D02*
X1028860D01*
Y368460D01*
X1086960Y203360D02*
X1168560D01*
X1086960Y121760D02*
Y203360D01*
X1066960Y223360D02*
X1188560D01*
X1066960Y101760D02*
Y223360D01*
X1188560Y101760D02*
Y223360D01*
X1066960Y101760D02*
X1188560D01*
X1086960Y121760D02*
X1168560D01*
Y203360D01*
X1229200Y205900D02*
X1310800D01*
X1229200Y124300D02*
Y205900D01*
X1209200Y225900D02*
X1330800D01*
X1209200Y104300D02*
Y225900D01*
X1330800Y104300D02*
Y225900D01*
X1209200Y104300D02*
X1330800D01*
X1229200Y124300D02*
X1310800D01*
Y205900D01*
X1373980Y203360D02*
X1455580D01*
X1373980Y121760D02*
Y203360D01*
X1353980Y223360D02*
X1475580D01*
X1353980Y101760D02*
Y223360D01*
X1475580Y101760D02*
Y223360D01*
X1353980Y101760D02*
X1475580D01*
X1373980Y121760D02*
X1455580D01*
Y203360D01*
X1229200Y693580D02*
X1310800D01*
X1229200Y611980D02*
Y693580D01*
X1209200Y713580D02*
X1330800D01*
X1209200Y591980D02*
Y713580D01*
X1330800Y591980D02*
Y713580D01*
X1209200Y591980D02*
X1330800D01*
X1229200Y611980D02*
X1310800D01*
Y693580D01*
X15640Y112160D02*
Y695560D01*
X599040Y112160D02*
Y695560D01*
X15640Y112160D02*
X599040D01*
X15640Y695560D02*
X599040D01*
X687070Y635000D02*
X682405D01*
X680072Y632667D01*
X682405Y630335D01*
X687070D01*
X683571D01*
Y635000D01*
X750570D02*
X745905D01*
X743572Y632667D01*
X745905Y630335D01*
X750570D01*
X747071D01*
Y635000D01*
X1442368Y617220D02*
X1438369D01*
X1436370Y619219D01*
X1438369Y621219D01*
X1442368D01*
X1440369Y627217D02*
Y624218D01*
X1439369Y623218D01*
X1437370D01*
X1436370Y624218D01*
Y627217D01*
X1440369Y633215D02*
Y630216D01*
X1439369Y629216D01*
X1437370D01*
X1436370Y630216D01*
Y633215D01*
X1441368Y677099D02*
X1442368Y676099D01*
Y674100D01*
X1441368Y673100D01*
X1437370D01*
X1436370Y674100D01*
Y676099D01*
X1437370Y677099D01*
X1439369D01*
Y675099D01*
X1436370Y679098D02*
X1442368D01*
X1436370Y683097D01*
X1442368D01*
Y685096D02*
X1436370D01*
Y688095D01*
X1437370Y689095D01*
X1441368D01*
X1442368Y688095D01*
Y685096D01*
X1165508Y619760D02*
X1161509D01*
X1159510Y621759D01*
X1161509Y623759D01*
X1165508D01*
X1163509Y629757D02*
Y626758D01*
X1162509Y625758D01*
X1160510D01*
X1159510Y626758D01*
Y629757D01*
X1163509Y635755D02*
Y632756D01*
X1162509Y631756D01*
X1160510D01*
X1159510Y632756D01*
Y635755D01*
X1164508Y679639D02*
X1165508Y678639D01*
Y676640D01*
X1164508Y675640D01*
X1160510D01*
X1159510Y676640D01*
Y678639D01*
X1160510Y679639D01*
X1162509D01*
Y677639D01*
X1159510Y681638D02*
X1165508D01*
X1159510Y685637D01*
X1165508D01*
Y687636D02*
X1159510D01*
Y690635D01*
X1160510Y691635D01*
X1164508D01*
X1165508Y690635D01*
Y687636D01*
X1023268Y619760D02*
X1019269D01*
X1017270Y621759D01*
X1019269Y623759D01*
X1023268D01*
X1021269Y629757D02*
Y626758D01*
X1020269Y625758D01*
X1018270D01*
X1017270Y626758D01*
Y629757D01*
X1021269Y635755D02*
Y632756D01*
X1020269Y631756D01*
X1018270D01*
X1017270Y632756D01*
Y635755D01*
X1022268Y679639D02*
X1023268Y678639D01*
Y676640D01*
X1022268Y675640D01*
X1018270D01*
X1017270Y676640D01*
Y678639D01*
X1018270Y679639D01*
X1020269D01*
Y677639D01*
X1017270Y681638D02*
X1023268D01*
X1017270Y685637D01*
X1023268D01*
Y687636D02*
X1017270D01*
Y690635D01*
X1018270Y691635D01*
X1022268D01*
X1023268Y690635D01*
Y687636D01*
X1025808Y457200D02*
X1021809D01*
X1019810Y459199D01*
X1021809Y461199D01*
X1025808D01*
X1023809Y467197D02*
Y464198D01*
X1022809Y463198D01*
X1020810D01*
X1019810Y464198D01*
Y467197D01*
X1023809Y473195D02*
Y470196D01*
X1022809Y469196D01*
X1020810D01*
X1019810Y470196D01*
Y473195D01*
X1024808Y517079D02*
X1025808Y516079D01*
Y514080D01*
X1024808Y513080D01*
X1020810D01*
X1019810Y514080D01*
Y516079D01*
X1020810Y517079D01*
X1022809D01*
Y515079D01*
X1019810Y519078D02*
X1025808D01*
X1019810Y523077D01*
X1025808D01*
Y525076D02*
X1019810D01*
Y528075D01*
X1020810Y529075D01*
X1024808D01*
X1025808Y528075D01*
Y525076D01*
X1165508Y454660D02*
X1161509D01*
X1159510Y456659D01*
X1161509Y458659D01*
X1165508D01*
X1163509Y464657D02*
Y461658D01*
X1162509Y460658D01*
X1160510D01*
X1159510Y461658D01*
Y464657D01*
X1163509Y470655D02*
Y467656D01*
X1162509Y466656D01*
X1160510D01*
X1159510Y467656D01*
Y470655D01*
X1164508Y514539D02*
X1165508Y513539D01*
Y511540D01*
X1164508Y510540D01*
X1160510D01*
X1159510Y511540D01*
Y513539D01*
X1160510Y514539D01*
X1162509D01*
Y512539D01*
X1159510Y516538D02*
X1165508D01*
X1159510Y520537D01*
X1165508D01*
Y522536D02*
X1159510D01*
Y525535D01*
X1160510Y526535D01*
X1164508D01*
X1165508Y525535D01*
Y522536D01*
X1305208Y454660D02*
X1301209D01*
X1299210Y456659D01*
X1301209Y458659D01*
X1305208D01*
X1303209Y464657D02*
Y461658D01*
X1302209Y460658D01*
X1300210D01*
X1299210Y461658D01*
Y464657D01*
X1303209Y470655D02*
Y467656D01*
X1302209Y466656D01*
X1300210D01*
X1299210Y467656D01*
Y470655D01*
X1304208Y514539D02*
X1305208Y513539D01*
Y511540D01*
X1304208Y510540D01*
X1300210D01*
X1299210Y511540D01*
Y513539D01*
X1300210Y514539D01*
X1302209D01*
Y512539D01*
X1299210Y516538D02*
X1305208D01*
X1299210Y520537D01*
X1305208D01*
Y522536D02*
X1299210D01*
Y525535D01*
X1300210Y526535D01*
X1304208D01*
X1305208Y525535D01*
Y522536D01*
X1444908Y457200D02*
X1440909D01*
X1438910Y459199D01*
X1440909Y461199D01*
X1444908D01*
X1442909Y467197D02*
Y464198D01*
X1441909Y463198D01*
X1439910D01*
X1438910Y464198D01*
Y467197D01*
X1442909Y473195D02*
Y470196D01*
X1441909Y469196D01*
X1439910D01*
X1438910Y470196D01*
Y473195D01*
X1443908Y517079D02*
X1444908Y516079D01*
Y514080D01*
X1443908Y513080D01*
X1439910D01*
X1438910Y514080D01*
Y516079D01*
X1439910Y517079D01*
X1441909D01*
Y515079D01*
X1438910Y519078D02*
X1444908D01*
X1438910Y523077D01*
X1444908D01*
Y525076D02*
X1438910D01*
Y528075D01*
X1439910Y529075D01*
X1443908D01*
X1444908Y528075D01*
Y525076D01*
Y292100D02*
X1440909D01*
X1438910Y294099D01*
X1440909Y296099D01*
X1444908D01*
X1442909Y302097D02*
Y299098D01*
X1441909Y298098D01*
X1439910D01*
X1438910Y299098D01*
Y302097D01*
X1442909Y308095D02*
Y305096D01*
X1441909Y304096D01*
X1439910D01*
X1438910Y305096D01*
Y308095D01*
X1443908Y351979D02*
X1444908Y350979D01*
Y348980D01*
X1443908Y347980D01*
X1439910D01*
X1438910Y348980D01*
Y350979D01*
X1439910Y351979D01*
X1441909D01*
Y349979D01*
X1438910Y353978D02*
X1444908D01*
X1438910Y357977D01*
X1444908D01*
Y359976D02*
X1438910D01*
Y362975D01*
X1439910Y363975D01*
X1443908D01*
X1444908Y362975D01*
Y359976D01*
X1307748Y292100D02*
X1303749D01*
X1301750Y294099D01*
X1303749Y296099D01*
X1307748D01*
X1305749Y302097D02*
Y299098D01*
X1304749Y298098D01*
X1302750D01*
X1301750Y299098D01*
Y302097D01*
X1305749Y308095D02*
Y305096D01*
X1304749Y304096D01*
X1302750D01*
X1301750Y305096D01*
Y308095D01*
X1306748Y351979D02*
X1307748Y350979D01*
Y348980D01*
X1306748Y347980D01*
X1302750D01*
X1301750Y348980D01*
Y350979D01*
X1302750Y351979D01*
X1304749D01*
Y349979D01*
X1301750Y353978D02*
X1307748D01*
X1301750Y357977D01*
X1307748D01*
Y359976D02*
X1301750D01*
Y362975D01*
X1302750Y363975D01*
X1306748D01*
X1307748Y362975D01*
Y359976D01*
X1165508Y289560D02*
X1161509D01*
X1159510Y291559D01*
X1161509Y293559D01*
X1165508D01*
X1163509Y299557D02*
Y296558D01*
X1162509Y295558D01*
X1160510D01*
X1159510Y296558D01*
Y299557D01*
X1163509Y305555D02*
Y302556D01*
X1162509Y301556D01*
X1160510D01*
X1159510Y302556D01*
Y305555D01*
X1164508Y349439D02*
X1165508Y348439D01*
Y346440D01*
X1164508Y345440D01*
X1160510D01*
X1159510Y346440D01*
Y348439D01*
X1160510Y349439D01*
X1162509D01*
Y347439D01*
X1159510Y351438D02*
X1165508D01*
X1159510Y355437D01*
X1165508D01*
Y357436D02*
X1159510D01*
Y360435D01*
X1160510Y361435D01*
X1164508D01*
X1165508Y360435D01*
Y357436D01*
X1020728Y127000D02*
X1016729D01*
X1014730Y128999D01*
X1016729Y130999D01*
X1020728D01*
X1018729Y136997D02*
Y133998D01*
X1017729Y132998D01*
X1015730D01*
X1014730Y133998D01*
Y136997D01*
X1018729Y142995D02*
Y139996D01*
X1017729Y138996D01*
X1015730D01*
X1014730Y139996D01*
Y142995D01*
X1019728Y186879D02*
X1020728Y185879D01*
Y183880D01*
X1019728Y182880D01*
X1015730D01*
X1014730Y183880D01*
Y185879D01*
X1015730Y186879D01*
X1017729D01*
Y184879D01*
X1014730Y188878D02*
X1020728D01*
X1014730Y192877D01*
X1020728D01*
Y194876D02*
X1014730D01*
Y197875D01*
X1015730Y198875D01*
X1019728D01*
X1020728Y197875D01*
Y194876D01*
X1023268Y292100D02*
X1019269D01*
X1017270Y294099D01*
X1019269Y296099D01*
X1023268D01*
X1021269Y302097D02*
Y299098D01*
X1020269Y298098D01*
X1018270D01*
X1017270Y299098D01*
Y302097D01*
X1021269Y308095D02*
Y305096D01*
X1020269Y304096D01*
X1018270D01*
X1017270Y305096D01*
Y308095D01*
X1022268Y351979D02*
X1023268Y350979D01*
Y348980D01*
X1022268Y347980D01*
X1018270D01*
X1017270Y348980D01*
Y350979D01*
X1018270Y351979D01*
X1020269D01*
Y349979D01*
X1017270Y353978D02*
X1023268D01*
X1017270Y357977D01*
X1023268D01*
Y359976D02*
X1017270D01*
Y362975D01*
X1018270Y363975D01*
X1022268D01*
X1023268Y362975D01*
Y359976D01*
X1162968Y127000D02*
X1158969D01*
X1156970Y128999D01*
X1158969Y130999D01*
X1162968D01*
X1160969Y136997D02*
Y133998D01*
X1159969Y132998D01*
X1157970D01*
X1156970Y133998D01*
Y136997D01*
X1160969Y142995D02*
Y139996D01*
X1159969Y138996D01*
X1157970D01*
X1156970Y139996D01*
Y142995D01*
X1161968Y186879D02*
X1162968Y185879D01*
Y183880D01*
X1161968Y182880D01*
X1157970D01*
X1156970Y183880D01*
Y185879D01*
X1157970Y186879D01*
X1159969D01*
Y184879D01*
X1156970Y188878D02*
X1162968D01*
X1156970Y192877D01*
X1162968D01*
Y194876D02*
X1156970D01*
Y197875D01*
X1157970Y198875D01*
X1161968D01*
X1162968Y197875D01*
Y194876D01*
X1305208Y129540D02*
X1301209D01*
X1299210Y131539D01*
X1301209Y133539D01*
X1305208D01*
X1303209Y139537D02*
Y136538D01*
X1302209Y135538D01*
X1300210D01*
X1299210Y136538D01*
Y139537D01*
X1303209Y145535D02*
Y142536D01*
X1302209Y141536D01*
X1300210D01*
X1299210Y142536D01*
Y145535D01*
X1304208Y189419D02*
X1305208Y188419D01*
Y186420D01*
X1304208Y185420D01*
X1300210D01*
X1299210Y186420D01*
Y188419D01*
X1300210Y189419D01*
X1302209D01*
Y187419D01*
X1299210Y191418D02*
X1305208D01*
X1299210Y195417D01*
X1305208D01*
Y197416D02*
X1299210D01*
Y200415D01*
X1300210Y201415D01*
X1304208D01*
X1305208Y200415D01*
Y197416D01*
X1449988Y127000D02*
X1445989D01*
X1443990Y128999D01*
X1445989Y130999D01*
X1449988D01*
X1447989Y136997D02*
Y133998D01*
X1446989Y132998D01*
X1444990D01*
X1443990Y133998D01*
Y136997D01*
X1447989Y142995D02*
Y139996D01*
X1446989Y138996D01*
X1444990D01*
X1443990Y139996D01*
Y142995D01*
X1448988Y186879D02*
X1449988Y185879D01*
Y183880D01*
X1448988Y182880D01*
X1444990D01*
X1443990Y183880D01*
Y185879D01*
X1444990Y186879D01*
X1446989D01*
Y184879D01*
X1443990Y188878D02*
X1449988D01*
X1443990Y192877D01*
X1449988D01*
Y194876D02*
X1443990D01*
Y197875D01*
X1444990Y198875D01*
X1448988D01*
X1449988Y197875D01*
Y194876D01*
X1305208Y617220D02*
X1301209D01*
X1299210Y619219D01*
X1301209Y621219D01*
X1305208D01*
X1303209Y627217D02*
Y624218D01*
X1302209Y623218D01*
X1300210D01*
X1299210Y624218D01*
Y627217D01*
X1303209Y633215D02*
Y630216D01*
X1302209Y629216D01*
X1300210D01*
X1299210Y630216D01*
Y633215D01*
X1304208Y677099D02*
X1305208Y676099D01*
Y674100D01*
X1304208Y673100D01*
X1300210D01*
X1299210Y674100D01*
Y676099D01*
X1300210Y677099D01*
X1302209D01*
Y675099D01*
X1299210Y679098D02*
X1305208D01*
X1299210Y683097D01*
X1305208D01*
Y685096D02*
X1299210D01*
Y688095D01*
X1300210Y689095D01*
X1304208D01*
X1305208Y688095D01*
Y685096D01*
X895350Y673100D02*
X890685D01*
X888352Y670767D01*
X890685Y668435D01*
X895350D01*
X891851D01*
Y673100D01*
X895350Y609600D02*
X890685D01*
X888352Y607267D01*
X890685Y604935D01*
X895350D01*
X891851D01*
Y609600D01*
X895350Y546100D02*
X890685D01*
X888352Y543767D01*
X890685Y541435D01*
X895350D01*
X891851D01*
Y546100D01*
D47*
X745998Y215503D02*
Y200268D01*
X735841D01*
X720606Y212964D02*
X723145Y215503D01*
X728224D01*
X730763Y212964D01*
Y210425D01*
X728224Y207885D01*
X723145D01*
X720606Y205346D01*
Y202807D01*
X723145Y200268D01*
X728224D01*
X730763Y202807D01*
X715528Y200268D02*
X710450D01*
X712989D01*
Y215503D01*
X715528Y212964D01*
X597154Y819065D02*
Y806369D01*
X594615Y803830D01*
X589537D01*
X586997Y806369D01*
Y819065D01*
X581919Y816526D02*
X579380Y819065D01*
X574301D01*
X571762Y816526D01*
Y813987D01*
X574301Y811448D01*
X576841D01*
X574301D01*
X571762Y808908D01*
Y806369D01*
X574301Y803830D01*
X579380D01*
X581919Y806369D01*
X1379223Y764536D02*
X1381763Y767075D01*
X1386841D01*
X1389380Y764536D01*
Y761997D01*
X1386841Y759457D01*
X1381763D01*
X1379223Y756918D01*
Y754379D01*
X1381763Y751840D01*
X1386841D01*
X1389380Y754379D01*
X1374145Y764536D02*
X1371606Y767075D01*
X1366527D01*
X1363988Y764536D01*
Y761997D01*
X1366527Y759457D01*
X1369067D01*
X1366527D01*
X1363988Y756918D01*
Y754379D01*
X1366527Y751840D01*
X1371606D01*
X1374145Y754379D01*
X1473708Y234188D02*
Y249423D01*
X1466091D01*
X1463551Y246884D01*
Y241805D01*
X1466091Y239266D01*
X1473708D01*
X1468630D02*
X1463551Y234188D01*
X1458473Y231649D02*
X1448316D01*
X1443238Y249423D02*
Y239266D01*
X1438159Y234188D01*
X1433081Y239266D01*
Y249423D01*
X1428003Y234188D02*
Y244345D01*
X1422924Y249423D01*
X1417846Y244345D01*
Y234188D01*
Y241805D01*
X1428003D01*
X1412768Y234188D02*
Y249423D01*
X1405150D01*
X1402611Y246884D01*
Y241805D01*
X1405150Y239266D01*
X1412768D01*
X1407689D02*
X1402611Y234188D01*
X1397533D02*
X1392454D01*
X1394993D01*
Y249423D01*
X1397533Y246884D01*
X1374680Y249423D02*
X1379758Y246884D01*
X1384837Y241805D01*
Y236727D01*
X1382298Y234188D01*
X1377219D01*
X1374680Y236727D01*
Y239266D01*
X1377219Y241805D01*
X1384837D01*
X1468628Y399288D02*
Y414523D01*
X1461010D01*
X1458471Y411984D01*
Y406906D01*
X1461010Y404366D01*
X1468628D01*
X1463550D02*
X1458471Y399288D01*
X1453393Y396749D02*
X1443236D01*
X1438158Y414523D02*
Y404366D01*
X1433080Y399288D01*
X1428001Y404366D01*
Y414523D01*
X1422923Y399288D02*
Y409445D01*
X1417844Y414523D01*
X1412766Y409445D01*
Y399288D01*
Y406906D01*
X1422923D01*
X1407688Y399288D02*
Y414523D01*
X1400070D01*
X1397531Y411984D01*
Y406906D01*
X1400070Y404366D01*
X1407688D01*
X1402609D02*
X1397531Y399288D01*
X1392453D02*
X1387374D01*
X1389913D01*
Y414523D01*
X1392453Y411984D01*
X1369600Y414523D02*
X1379757D01*
Y406906D01*
X1374678Y409445D01*
X1372139D01*
X1369600Y406906D01*
Y401827D01*
X1372139Y399288D01*
X1377218D01*
X1379757Y401827D01*
X1468628Y564388D02*
Y579623D01*
X1461010D01*
X1458471Y577084D01*
Y572006D01*
X1461010Y569466D01*
X1468628D01*
X1463550D02*
X1458471Y564388D01*
X1453393Y561849D02*
X1443236D01*
X1438158Y579623D02*
Y569466D01*
X1433080Y564388D01*
X1428001Y569466D01*
Y579623D01*
X1422923Y564388D02*
Y574545D01*
X1417844Y579623D01*
X1412766Y574545D01*
Y564388D01*
Y572006D01*
X1422923D01*
X1407688Y564388D02*
Y579623D01*
X1400070D01*
X1397531Y577084D01*
Y572006D01*
X1400070Y569466D01*
X1407688D01*
X1402609D02*
X1397531Y564388D01*
X1392453D02*
X1387374D01*
X1389913D01*
Y579623D01*
X1392453Y577084D01*
X1372139Y564388D02*
Y579623D01*
X1379757Y572006D01*
X1369600D01*
X1466088Y724408D02*
Y739643D01*
X1458470D01*
X1455931Y737104D01*
Y732026D01*
X1458470Y729486D01*
X1466088D01*
X1461010D02*
X1455931Y724408D01*
X1450853Y721869D02*
X1440696D01*
X1435618Y739643D02*
Y729486D01*
X1430540Y724408D01*
X1425461Y729486D01*
Y739643D01*
X1420383Y724408D02*
Y734565D01*
X1415304Y739643D01*
X1410226Y734565D01*
Y724408D01*
Y732026D01*
X1420383D01*
X1405148Y724408D02*
Y739643D01*
X1397530D01*
X1394991Y737104D01*
Y732026D01*
X1397530Y729486D01*
X1405148D01*
X1400069D02*
X1394991Y724408D01*
X1389913D02*
X1384834D01*
X1387374D01*
Y739643D01*
X1389913Y737104D01*
X1377217D02*
X1374678Y739643D01*
X1369599D01*
X1367060Y737104D01*
Y734565D01*
X1369599Y732026D01*
X1372138D01*
X1369599D01*
X1367060Y729486D01*
Y726947D01*
X1369599Y724408D01*
X1374678D01*
X1377217Y726947D01*
X1328928Y236728D02*
Y251963D01*
X1321310D01*
X1318771Y249424D01*
Y244345D01*
X1321310Y241806D01*
X1328928D01*
X1323850D02*
X1318771Y236728D01*
X1313693Y234189D02*
X1303536D01*
X1298458Y251963D02*
Y241806D01*
X1293380Y236728D01*
X1288301Y241806D01*
Y251963D01*
X1283223Y236728D02*
Y246885D01*
X1278144Y251963D01*
X1273066Y246885D01*
Y236728D01*
Y244345D01*
X1283223D01*
X1267988Y236728D02*
Y251963D01*
X1260370D01*
X1257831Y249424D01*
Y244345D01*
X1260370Y241806D01*
X1267988D01*
X1262909D02*
X1257831Y236728D01*
X1252753D02*
X1247674D01*
X1250213D01*
Y251963D01*
X1252753Y249424D01*
X1229900Y236728D02*
X1240057D01*
X1229900Y246885D01*
Y249424D01*
X1232439Y251963D01*
X1237518D01*
X1240057Y249424D01*
X1331468Y399288D02*
Y414523D01*
X1323851D01*
X1321311Y411984D01*
Y406906D01*
X1323851Y404366D01*
X1331468D01*
X1326390D02*
X1321311Y399288D01*
X1316233Y396749D02*
X1306076D01*
X1300998Y414523D02*
Y404366D01*
X1295919Y399288D01*
X1290841Y404366D01*
Y414523D01*
X1285763Y399288D02*
Y409445D01*
X1280684Y414523D01*
X1275606Y409445D01*
Y399288D01*
Y406906D01*
X1285763D01*
X1270528Y399288D02*
Y414523D01*
X1262910D01*
X1260371Y411984D01*
Y406906D01*
X1262910Y404366D01*
X1270528D01*
X1265449D02*
X1260371Y399288D01*
X1255293D02*
X1250214D01*
X1252754D01*
Y414523D01*
X1255293Y411984D01*
X1242597Y399288D02*
X1237518D01*
X1240058D01*
Y414523D01*
X1242597Y411984D01*
X1328928Y561848D02*
Y577083D01*
X1321310D01*
X1318771Y574544D01*
Y569465D01*
X1321310Y566926D01*
X1328928D01*
X1323850D02*
X1318771Y561848D01*
X1313693Y559309D02*
X1303536D01*
X1298458Y577083D02*
Y566926D01*
X1293380Y561848D01*
X1288301Y566926D01*
Y577083D01*
X1283223Y561848D02*
Y572005D01*
X1278144Y577083D01*
X1273066Y572005D01*
Y561848D01*
Y569465D01*
X1283223D01*
X1267988Y561848D02*
Y577083D01*
X1260370D01*
X1257831Y574544D01*
Y569465D01*
X1260370Y566926D01*
X1267988D01*
X1262909D02*
X1257831Y561848D01*
X1252753D02*
X1247674D01*
X1250213D01*
Y577083D01*
X1252753Y574544D01*
X1240057D02*
X1237518Y577083D01*
X1232439D01*
X1229900Y574544D01*
Y564387D01*
X1232439Y561848D01*
X1237518D01*
X1240057Y564387D01*
Y574544D01*
X1310640Y726440D02*
Y741675D01*
X1303022D01*
X1300483Y739136D01*
Y734057D01*
X1303022Y731518D01*
X1310640D01*
X1305562D02*
X1300483Y726440D01*
X1295405Y723901D02*
X1285248D01*
X1280170Y741675D02*
Y731518D01*
X1275091Y726440D01*
X1270013Y731518D01*
Y741675D01*
X1264935Y726440D02*
Y736597D01*
X1259856Y741675D01*
X1254778Y736597D01*
Y726440D01*
Y734057D01*
X1264935D01*
X1249700Y726440D02*
Y741675D01*
X1242082D01*
X1239543Y739136D01*
Y734057D01*
X1242082Y731518D01*
X1249700D01*
X1244621D02*
X1239543Y726440D01*
X1234465Y728979D02*
X1231926Y726440D01*
X1226847D01*
X1224308Y728979D01*
Y739136D01*
X1226847Y741675D01*
X1231926D01*
X1234465Y739136D01*
Y736597D01*
X1231926Y734057D01*
X1224308D01*
X1186688Y234188D02*
Y249423D01*
X1179071D01*
X1176531Y246884D01*
Y241805D01*
X1179071Y239266D01*
X1186688D01*
X1181610D02*
X1176531Y234188D01*
X1171453Y231649D02*
X1161296D01*
X1156218Y249423D02*
Y239266D01*
X1151140Y234188D01*
X1146061Y239266D01*
Y249423D01*
X1140983Y234188D02*
Y244345D01*
X1135904Y249423D01*
X1130826Y244345D01*
Y234188D01*
Y241805D01*
X1140983D01*
X1125748Y234188D02*
Y249423D01*
X1118130D01*
X1115591Y246884D01*
Y241805D01*
X1118130Y239266D01*
X1125748D01*
X1120669D02*
X1115591Y234188D01*
X1110513Y246884D02*
X1107973Y249423D01*
X1102895D01*
X1100356Y246884D01*
Y244345D01*
X1102895Y241805D01*
X1100356Y239266D01*
Y236727D01*
X1102895Y234188D01*
X1107973D01*
X1110513Y236727D01*
Y239266D01*
X1107973Y241805D01*
X1110513Y244345D01*
Y246884D01*
X1107973Y241805D02*
X1102895D01*
X1189228Y396748D02*
Y411983D01*
X1181610D01*
X1179071Y409444D01*
Y404366D01*
X1181610Y401826D01*
X1189228D01*
X1184150D02*
X1179071Y396748D01*
X1173993Y394209D02*
X1163836D01*
X1158758Y411983D02*
Y401826D01*
X1153680Y396748D01*
X1148601Y401826D01*
Y411983D01*
X1143523Y396748D02*
Y406905D01*
X1138444Y411983D01*
X1133366Y406905D01*
Y396748D01*
Y404366D01*
X1143523D01*
X1128288Y396748D02*
Y411983D01*
X1120670D01*
X1118131Y409444D01*
Y404366D01*
X1120670Y401826D01*
X1128288D01*
X1123209D02*
X1118131Y396748D01*
X1113053Y411983D02*
X1102896D01*
Y409444D01*
X1113053Y399287D01*
Y396748D01*
X1189228Y561848D02*
Y577083D01*
X1181610D01*
X1179071Y574544D01*
Y569465D01*
X1181610Y566926D01*
X1189228D01*
X1184150D02*
X1179071Y561848D01*
X1173993Y559309D02*
X1163836D01*
X1158758Y577083D02*
Y566926D01*
X1153680Y561848D01*
X1148601Y566926D01*
Y577083D01*
X1143523Y561848D02*
Y572005D01*
X1138444Y577083D01*
X1133366Y572005D01*
Y561848D01*
Y569465D01*
X1143523D01*
X1128288Y561848D02*
Y577083D01*
X1120670D01*
X1118131Y574544D01*
Y569465D01*
X1120670Y566926D01*
X1128288D01*
X1123209D02*
X1118131Y561848D01*
X1102896Y577083D02*
X1107974Y574544D01*
X1113053Y569465D01*
Y564387D01*
X1110514Y561848D01*
X1105435D01*
X1102896Y564387D01*
Y566926D01*
X1105435Y569465D01*
X1113053D01*
X1189228Y726948D02*
Y742183D01*
X1181610D01*
X1179071Y739644D01*
Y734566D01*
X1181610Y732026D01*
X1189228D01*
X1184150D02*
X1179071Y726948D01*
X1173993Y724409D02*
X1163836D01*
X1158758Y742183D02*
Y732026D01*
X1153680Y726948D01*
X1148601Y732026D01*
Y742183D01*
X1143523Y726948D02*
Y737105D01*
X1138444Y742183D01*
X1133366Y737105D01*
Y726948D01*
Y734566D01*
X1143523D01*
X1128288Y726948D02*
Y742183D01*
X1120670D01*
X1118131Y739644D01*
Y734566D01*
X1120670Y732026D01*
X1128288D01*
X1123209D02*
X1118131Y726948D01*
X1102896Y742183D02*
X1113053D01*
Y734566D01*
X1107974Y737105D01*
X1105435D01*
X1102896Y734566D01*
Y729487D01*
X1105435Y726948D01*
X1110514D01*
X1113053Y729487D01*
X1044448Y234188D02*
Y249423D01*
X1036831D01*
X1034291Y246884D01*
Y241805D01*
X1036831Y239266D01*
X1044448D01*
X1039370D02*
X1034291Y234188D01*
X1029213Y231649D02*
X1019056D01*
X1013978Y249423D02*
Y239266D01*
X1008900Y234188D01*
X1003821Y239266D01*
Y249423D01*
X998743Y234188D02*
Y244345D01*
X993664Y249423D01*
X988586Y244345D01*
Y234188D01*
Y241805D01*
X998743D01*
X983508Y234188D02*
Y249423D01*
X975890D01*
X973351Y246884D01*
Y241805D01*
X975890Y239266D01*
X983508D01*
X978429D02*
X973351Y234188D01*
X960655D02*
Y249423D01*
X968273Y241805D01*
X958116D01*
X1046988Y399288D02*
Y414523D01*
X1039370D01*
X1036831Y411984D01*
Y406906D01*
X1039370Y404366D01*
X1046988D01*
X1041910D02*
X1036831Y399288D01*
X1031753Y396749D02*
X1021596D01*
X1016518Y414523D02*
Y404366D01*
X1011440Y399288D01*
X1006361Y404366D01*
Y414523D01*
X1001283Y399288D02*
Y409445D01*
X996204Y414523D01*
X991126Y409445D01*
Y399288D01*
Y406906D01*
X1001283D01*
X986048Y399288D02*
Y414523D01*
X978430D01*
X975891Y411984D01*
Y406906D01*
X978430Y404366D01*
X986048D01*
X980969D02*
X975891Y399288D01*
X970813Y411984D02*
X968273Y414523D01*
X963195D01*
X960656Y411984D01*
Y409445D01*
X963195Y406906D01*
X965734D01*
X963195D01*
X960656Y404366D01*
Y401827D01*
X963195Y399288D01*
X968273D01*
X970813Y401827D01*
X1049528Y564388D02*
Y579623D01*
X1041910D01*
X1039371Y577084D01*
Y572006D01*
X1041910Y569466D01*
X1049528D01*
X1044450D02*
X1039371Y564388D01*
X1034293Y561849D02*
X1024136D01*
X1019058Y579623D02*
Y569466D01*
X1013979Y564388D01*
X1008901Y569466D01*
Y579623D01*
X1003823Y564388D02*
Y574545D01*
X998744Y579623D01*
X993666Y574545D01*
Y564388D01*
Y572006D01*
X1003823D01*
X988588Y564388D02*
Y579623D01*
X980970D01*
X978431Y577084D01*
Y572006D01*
X980970Y569466D01*
X988588D01*
X983509D02*
X978431Y564388D01*
X963196D02*
X973353D01*
X963196Y574545D01*
Y577084D01*
X965735Y579623D01*
X970814D01*
X973353Y577084D01*
X1046988Y726948D02*
Y742183D01*
X1039370D01*
X1036831Y739644D01*
Y734566D01*
X1039370Y732026D01*
X1046988D01*
X1041910D02*
X1036831Y726948D01*
X1031753Y724409D02*
X1021596D01*
X1016518Y742183D02*
Y732026D01*
X1011440Y726948D01*
X1006361Y732026D01*
Y742183D01*
X1001283Y726948D02*
Y737105D01*
X996204Y742183D01*
X991126Y737105D01*
Y726948D01*
Y734566D01*
X1001283D01*
X986048Y726948D02*
Y742183D01*
X978430D01*
X975891Y739644D01*
Y734566D01*
X978430Y732026D01*
X986048D01*
X980969D02*
X975891Y726948D01*
X970813D02*
X965734D01*
X968273D01*
Y742183D01*
X970813Y739644D01*
X781795Y607060D02*
X766560D01*
Y614678D01*
X769099Y617217D01*
X779256D01*
X781795Y614678D01*
Y607060D01*
X766560Y632452D02*
Y622295D01*
X776717Y632452D01*
X779256D01*
X781795Y629913D01*
Y624834D01*
X779256Y622295D01*
X655320Y568965D02*
Y584200D01*
X662937D01*
X665477Y581661D01*
Y571504D01*
X662937Y568965D01*
X655320D01*
X670555Y571504D02*
X673094Y568965D01*
X678173D01*
X680712Y571504D01*
Y574043D01*
X678173Y576582D01*
X675633D01*
X678173D01*
X680712Y579122D01*
Y581661D01*
X678173Y584200D01*
X673094D01*
X670555Y581661D01*
X840740Y538475D02*
Y523240D01*
X833122D01*
X830583Y525779D01*
Y535936D01*
X833122Y538475D01*
X840740D01*
X825505Y525779D02*
X822966Y523240D01*
X817887D01*
X815348Y525779D01*
Y535936D01*
X817887Y538475D01*
X822966D01*
X825505Y535936D01*
Y533397D01*
X822966Y530858D01*
X815348D01*
X840740Y601975D02*
Y586740D01*
X833122D01*
X830583Y589279D01*
Y599436D01*
X833122Y601975D01*
X840740D01*
X825505Y586740D02*
X820427D01*
X822966D01*
Y601975D01*
X825505Y599436D01*
X812809D02*
X810270Y601975D01*
X805191D01*
X802652Y599436D01*
Y589279D01*
X805191Y586740D01*
X810270D01*
X812809Y589279D01*
Y599436D01*
X840740Y662935D02*
Y647700D01*
X833122D01*
X830583Y650239D01*
Y660396D01*
X833122Y662935D01*
X840740D01*
X825505Y647700D02*
X820427D01*
X822966D01*
Y662935D01*
X825505Y660396D01*
X812809Y647700D02*
X807731D01*
X810270D01*
Y662935D01*
X812809Y660396D01*
X744223Y716276D02*
X746762Y718815D01*
X751841D01*
X754380Y716276D01*
Y713737D01*
X751841Y711198D01*
X746762D01*
X744223Y708658D01*
Y706119D01*
X746762Y703580D01*
X751841D01*
X754380Y706119D01*
X739145Y703580D02*
X734067D01*
X736606D01*
Y718815D01*
X739145Y716276D01*
X635003Y718816D02*
X637542Y721355D01*
X642621D01*
X645160Y718816D01*
Y716277D01*
X642621Y713737D01*
X637542D01*
X635003Y711198D01*
Y708659D01*
X637542Y706120D01*
X642621D01*
X645160Y708659D01*
X619768Y706120D02*
X629925D01*
X619768Y716277D01*
Y718816D01*
X622307Y721355D01*
X627386D01*
X629925Y718816D01*
X457340Y168860D02*
X452262D01*
X454801D01*
Y184095D01*
X457340Y181556D01*
X434487Y184095D02*
X439566Y181556D01*
X444644Y176478D01*
Y171399D01*
X442105Y168860D01*
X437027D01*
X434487Y171399D01*
Y173938D01*
X437027Y176478D01*
X444644D01*
X177340Y171399D02*
X174801Y168860D01*
X169722D01*
X167183Y171399D01*
Y181556D01*
X169722Y184095D01*
X174801D01*
X177340Y181556D01*
Y179017D01*
X174801Y176478D01*
X167183D01*
X177340Y636556D02*
X174801Y639095D01*
X169722D01*
X167183Y636556D01*
Y634017D01*
X169722Y631478D01*
X167183Y628938D01*
Y626399D01*
X169722Y623860D01*
X174801D01*
X177340Y626399D01*
Y628938D01*
X174801Y631478D01*
X177340Y634017D01*
Y636556D01*
X174801Y631478D02*
X169722D01*
X437340Y623860D02*
X432262D01*
X434801D01*
Y639095D01*
X437340Y636556D01*
M02*
