M48
;Layer_Color=9474304
;FILE_FORMAT=4:4
METRIC,LZ
;TYPE=PLATED
T2F00S00C0.7112
T3F00S00C0.7620
T4F00S00C0.9000
T5F00S00C1.0000
T6F00S00C1.0200
;TYPE=NON_PLATED
T7F00S00C4.0000
%
T02
X0041656Y0010922
X0037338Y002159
X0091948Y001397
X0103124Y0042418
X009144Y0048006
X0085344Y0048768
X0083566Y004445
X0083312Y0042164
X008001Y0040894
X0079502Y0038608
X0079248Y0036576
X0074676
X006985
X007112Y003429
X0071077Y0032258
X0075565Y0025781
X0062992Y002794
Y0046228
X0064008Y0048768
X007179Y0056642
X0091948Y0023622
X0040132Y0038354
X0038862Y0037084
X0037846Y0053848
X004191Y0056896
X002413Y0048006
X0016256Y0035814
X0058928Y0073152
X0083566Y0075184
X008128Y007747
X0092202Y00762
X009398Y0077216
T03
X006549Y00132
X007209
X0093472Y0011176
X0098552
X0103632
X0107696
X0112776
X0117856
X012192Y001143
X0127
X013208
Y002159
X0117856Y0021336
X0103632
X0146558
Y0011176
X0141478
X0136398
X013589Y0027686
X014097
X014605
Y0037846
Y0044196
X014097
X013589
X0135636Y0060198
X0140716
X0145796
X014605Y0054356
X015164Y0059944
X01618
X015875Y0053848
Y0051308
Y0048768
Y0046228
Y0043688
Y0038608
Y0036068
Y0033528
X0132334Y0037846
X013208Y0043942
X0127
X012192
X011811
X011303
X010795
X010414Y0044196
X009906
X009398
X0103886Y0037846
Y0027686
X010795Y0027432
X011303
X011811
X0122174Y0027686
X0127254
X0132334
X011811Y0037592
Y0054102
Y0060452
X012192Y0060198
X0127
X013208
Y0054102
X011303Y0060452
X010795
X0103886
X0098806
X0093726
X010414Y0054356
X0098806Y0027686
X0093726
X008763Y0051816
Y0054356
Y0058166
Y0060706
X0073152
X0066802
X0047244Y0079502
X0044704
X0060198
X0062738
X0066802Y0067564
X0069342
X0071882
X0073152Y0063246
X0066802
X008763Y0064516
Y0067056
X0103886Y0070612
X011811
X013208Y0070358
X0131318Y0079502
X0133858
X0136398
X0145796Y0070358
X0162814Y0066548
Y0064008
T04
X005563Y0047
Y004954
Y005208
Y005462
Y005716
Y00597
Y006224
X004801
Y00597
Y005716
Y005462
Y005208
Y004954
Y0047
Y006478
X005563
T05
X0021844Y0017526
X0024384
X0026924
X0029464
X0032004
X0034544
X0037084
X0039624
Y0063246
X0037084
X0034544
X0032004
X0029464
X0026924
X0024384
X0021844
X0146812Y0078232
X0151812Y0074732
T06
X0150114Y0015494
Y0018034
Y0020574
Y0023114
Y0025654
Y0028194
T07
X0004826Y0004826
X0161036
X0004826Y0077216
X0161036
M30
